ExpletusSans-Bold.ufo
<glyph name="exclam" format="2">
  <advance width="702"/>
  <unicode hex="0021"/>
  <outline>
    <contour>
      <point x="132" y="460" type="line"/>
      <point x="332" y="460" type="line"/>
      <point x="374" y="1454" type="line"/>
      <point x="94" y="1454" type="line"/>
    </contour>
    <contour>
      <point x="230" y="-28" type="curve" smooth="yes"/>
      <point x="322" y="-28"/>
      <point x="394" y="44"/>
      <point x="394" y="136" type="curve" smooth="yes"/>
      <point x="394" y="228"/>
      <point x="322" y="304"/>
      <point x="230" y="304" type="curve" smooth="yes"/>
      <point x="136" y="304"/>
      <point x="64" y="228"/>
      <point x="64" y="136" type="curve" smooth="yes" name="hr01"/>
      <point x="64" y="44"/>
      <point x="136" y="-28"/>
    </contour>
  </outline>
</glyph>
<glyph name="numbersign" format="2">
  <advance width="1788"/>
  <unicode hex="0023"/>
  <outline>
    <contour>
      <point x="290" y="0" type="line"/>
      <point x="514" y="0" type="line" name="hr01"/>
      <point x="690" y="924" type="line"/>
      <point x="1052" y="924" type="line"/>
      <point x="1088" y="928" type="line"/>
      <point x="1072" y="896" type="line"/>
      <point x="992" y="482" type="line"/>
      <point x="860" y="482" type="line" smooth="yes"/>
      <point x="716" y="482"/>
      <point x="662" y="384"/>
      <point x="636" y="308" type="curve"/>
      <point x="944" y="308" type="line"/>
      <point x="974" y="312" type="line"/>
      <point x="960" y="282" type="line"/>
      <point x="904" y="0" type="line"/>
      <point x="1128" y="0" type="line" name="hr07"/>
      <point x="1188" y="308" type="line"/>
      <point x="1442" y="308" type="line"/>
      <point x="1442" y="482" type="line"/>
      <point x="1216" y="482" type="line"/>
      <point x="1302" y="926" type="line"/>
      <point x="1562" y="926" type="line"/>
      <point x="1562" y="1100" type="line"/>
      <point x="1334" y="1100" type="line" name="hr06"/>
      <point x="1394" y="1404" type="line"/>
      <point x="1170" y="1404" type="line" name="hr05"/>
      <point x="1112" y="1100" type="line"/>
      <point x="722" y="1100" type="line" name="hr04"/>
      <point x="780" y="1404" type="line"/>
      <point x="556" y="1404" type="line" name="hr03"/>
      <point x="500" y="1100" type="line"/>
      <point x="248" y="1100" type="line"/>
      <point x="248" y="924" type="line"/>
      <point x="444" y="924" type="line"/>
      <point x="476" y="928" type="line"/>
      <point x="462" y="906" type="line"/>
      <point x="380" y="480" type="line"/>
      <point x="130" y="480" type="line"/>
      <point x="130" y="308" type="line"/>
      <point x="334" y="308" type="line" name="hr02"/>
      <point x="362" y="312" type="line"/>
      <point x="348" y="290" type="line"/>
    </contour>
  </outline>
</glyph>
<glyph name="dollar" format="2">
  <advance width="1028"/>
  <unicode hex="0024"/>
  <outline>
    <contour>
      <point x="420" y="-214" type="line"/>
      <point x="632" y="-214" type="line"/>
      <point x="632" y="-16" type="line"/>
      <point x="862" y="18"/>
      <point x="1012" y="148"/>
      <point x="1012" y="362" type="curve" smooth="yes"/>
      <point x="1012" y="808"/>
      <point x="330" y="812"/>
      <point x="330" y="1074" type="curve" smooth="yes"/>
      <point x="330" y="1160"/>
      <point x="408" y="1224"/>
      <point x="528" y="1224" type="curve" smooth="yes" name="hr00"/>
      <point x="616" y="1224"/>
      <point x="710" y="1210"/>
      <point x="828" y="1178" type="curve"/>
      <point x="902" y="1360" type="line"/>
      <point x="790" y="1394"/>
      <point x="710" y="1410"/>
      <point x="632" y="1418" type="curve"/>
      <point x="632" y="1620" type="line"/>
      <point x="420" y="1620" type="line"/>
      <point x="420" y="1418" type="line"/>
      <point x="222" y="1392"/>
      <point x="70" y="1276"/>
      <point x="70" y="1058" type="curve" smooth="yes"/>
      <point x="70" y="638"/>
      <point x="748" y="644"/>
      <point x="748" y="366" type="curve" smooth="yes"/>
      <point x="748" y="266"/>
      <point x="644" y="182"/>
      <point x="502" y="182" type="curve" smooth="yes"/>
      <point x="400" y="182"/>
      <point x="272" y="204"/>
      <point x="128" y="268" type="curve"/>
      <point x="52" y="80" type="line"/>
      <point x="194" y="18"/>
      <point x="318" y="-12"/>
      <point x="420" y="-22" type="curve"/>
    </contour>
  </outline>
</glyph>
<glyph name="percent" format="2">
  <advance width="1628"/>
  <unicode hex="0025"/>
  <outline>
    <contour>
      <point x="276" y="0" type="line"/>
      <point x="498" y="0" type="line"/>
      <point x="1374" y="1404" type="line"/>
      <point x="1152" y="1404" type="line"/>
    </contour>
    <contour>
      <point x="356" y="620" type="curve" smooth="yes"/>
      <point x="568" y="620"/>
      <point x="704" y="770"/>
      <point x="704" y="1028" type="curve" smooth="yes"/>
      <point x="704" y="1284"/>
      <point x="568" y="1434"/>
      <point x="356" y="1434" type="curve" smooth="yes"/>
      <point x="144" y="1434"/>
      <point x="12" y="1284"/>
      <point x="12" y="1028" type="curve" smooth="yes"/>
      <point x="12" y="768"/>
      <point x="144" y="620"/>
    </contour>
    <contour>
      <point x="356" y="778" type="curve" smooth="yes"/>
      <point x="284" y="778"/>
      <point x="232" y="862"/>
      <point x="232" y="1028" type="curve" smooth="yes"/>
      <point x="232" y="1190"/>
      <point x="284" y="1276"/>
      <point x="356" y="1276" type="curve" smooth="yes"/>
      <point x="432" y="1276"/>
      <point x="482" y="1190"/>
      <point x="482" y="1028" type="curve" smooth="yes"/>
      <point x="482" y="862"/>
      <point x="432" y="778"/>
    </contour>
    <contour>
      <point x="1294" y="-26" type="curve" smooth="yes" name="hr01"/>
      <point x="1506" y="-26"/>
      <point x="1642" y="124"/>
      <point x="1642" y="382" type="curve" smooth="yes"/>
      <point x="1642" y="638"/>
      <point x="1506" y="788"/>
      <point x="1294" y="788" type="curve" smooth="yes"/>
      <point x="1082" y="788"/>
      <point x="950" y="638"/>
      <point x="950" y="382" type="curve" smooth="yes"/>
      <point x="950" y="122"/>
      <point x="1082" y="-26"/>
    </contour>
    <contour>
      <point x="1294" y="132" type="curve" smooth="yes"/>
      <point x="1222" y="132"/>
      <point x="1170" y="216"/>
      <point x="1170" y="382" type="curve" smooth="yes"/>
      <point x="1170" y="544"/>
      <point x="1222" y="630"/>
      <point x="1294" y="630" type="curve" smooth="yes"/>
      <point x="1370" y="630"/>
      <point x="1420" y="544"/>
      <point x="1420" y="382" type="curve" smooth="yes"/>
      <point x="1420" y="216"/>
      <point x="1370" y="132"/>
    </contour>
  </outline>
</glyph>
<glyph name="ampersand" format="2">
  <advance width="1522"/>
  <unicode hex="0026"/>
  <outline>
    <contour>
      <point x="670" y="-22" type="curve" smooth="yes"/>
      <point x="790" y="-22"/>
      <point x="888" y="10"/>
      <point x="982" y="78" type="curve"/>
      <point x="926" y="140"/>
      <point x="866" y="200"/>
      <point x="766" y="192" type="curve" smooth="yes"/>
      <point x="742" y="190"/>
      <point x="728" y="186"/>
      <point x="700" y="186" type="curve" smooth="yes"/>
      <point x="558" y="186"/>
      <point x="486" y="298"/>
      <point x="486" y="444" type="curve" smooth="yes"/>
      <point x="486" y="528"/>
      <point x="514" y="590"/>
      <point x="558" y="646" type="curve"/>
      <point x="576" y="682" type="line"/>
      <point x="594" y="648" type="line"/>
      <point x="1152" y="0" type="line"/>
      <point x="1470" y="0" type="line"/>
      <point x="1216" y="294" type="line"/>
      <point x="1298" y="428"/>
      <point x="1346" y="582"/>
      <point x="1382" y="758" type="curve"/>
      <point x="1152" y="758" type="line"/>
      <point x="1138" y="662"/>
      <point x="1116" y="582"/>
      <point x="1078" y="498" type="curve"/>
      <point x="1064" y="456" type="line"/>
      <point x="1044" y="492" type="line"/>
      <point x="776" y="808" type="line"/>
      <point x="666" y="940"/>
      <point x="596" y="1016"/>
      <point x="596" y="1118" type="curve" smooth="yes"/>
      <point x="596" y="1206"/>
      <point x="674" y="1266"/>
      <point x="788" y="1266" type="curve" smooth="yes"/>
      <point x="860" y="1266"/>
      <point x="954" y="1250"/>
      <point x="1040" y="1222" type="curve"/>
      <point x="1100" y="1406" type="line"/>
      <point x="1002" y="1450"/>
      <point x="880" y="1474"/>
      <point x="792" y="1474" type="curve" smooth="yes"/>
      <point x="534" y="1474"/>
      <point x="340" y="1344"/>
      <point x="340" y="1100" type="curve" smooth="yes" name="hr01"/>
      <point x="340" y="1026"/>
      <point x="356" y="960"/>
      <point x="450" y="830" type="curve"/>
      <point x="320" y="732"/>
      <point x="216" y="598"/>
      <point x="216" y="418" type="curve" smooth="yes"/>
      <point x="216" y="150"/>
      <point x="400" y="-22"/>
    </contour>
  </outline>
</glyph>
<glyph name="quotesingle" format="2">
  <advance width="382"/>
  <unicode hex="0027"/>
  <outline>
    <contour>
      <point x="54" y="1002" type="line"/>
      <point x="298" y="1002" type="line"/>
      <point x="298" y="1454" type="line"/>
      <point x="54" y="1454" type="line" name="hr00"/>
    </contour>
  </outline>
</glyph>
<glyph name="parenleft" format="2">
  <advance width="806"/>
  <unicode hex="0028"/>
  <outline>
    <contour>
      <point x="678" y="-352" type="curve"/>
      <point x="810" y="-220" type="line"/>
      <point x="582" y="-18"/>
      <point x="562" y="148"/>
      <point x="562" y="592" type="curve" smooth="yes" name="hr00"/>
      <point x="562" y="1034"/>
      <point x="580" y="1198"/>
      <point x="810" y="1404" type="curve"/>
      <point x="678" y="1534" type="line"/>
      <point x="370" y="1326"/>
      <point x="316" y="1090"/>
      <point x="316" y="592" type="curve"/>
      <point x="316" y="92"/>
      <point x="370" y="-144"/>
    </contour>
  </outline>
</glyph>
<glyph name="parenright" format="2">
  <advance width="802"/>
  <unicode hex="0029"/>
  <outline>
    <contour>
      <point x="128" y="-352" type="line"/>
      <point x="436" y="-144"/>
      <point x="490" y="92"/>
      <point x="490" y="592" type="curve"/>
      <point x="490" y="1090"/>
      <point x="436" y="1326"/>
      <point x="128" y="1534" type="curve"/>
      <point x="-4" y="1404" type="line"/>
      <point x="226" y="1198"/>
      <point x="244" y="1034"/>
      <point x="244" y="592" type="curve" smooth="yes" name="hr00"/>
      <point x="244" y="148"/>
      <point x="224" y="-18"/>
      <point x="-4" y="-220" type="curve"/>
    </contour>
  </outline>
</glyph>
<glyph name="asterisk" format="2">
  <advance width="1060"/>
  <unicode hex="002A"/>
  <outline>
    <contour>
      <point x="394" y="692" type="line"/>
      <point x="500" y="1004" type="line"/>
      <point x="604" y="692" type="line"/>
      <point x="792" y="800" type="line"/>
      <point x="574" y="1046" type="line"/>
      <point x="624" y="1038"/>
      <point x="656" y="1032"/>
      <point x="900" y="982" type="curve"/>
      <point x="900" y="1198" type="line"/>
      <point x="578" y="1136" type="line"/>
      <point x="606" y="1172"/>
      <point x="630" y="1200"/>
      <point x="794" y="1382" type="curve"/>
      <point x="606" y="1492" type="line"/>
      <point x="498" y="1180" type="line" name="hr00"/>
      <point x="392" y="1492" type="line"/>
      <point x="204" y="1382" type="line"/>
      <point x="420" y="1138" type="line"/>
      <point x="102" y="1200" type="line"/>
      <point x="102" y="984" type="line"/>
      <point x="424" y="1048" type="line"/>
      <point x="206" y="800" type="line"/>
    </contour>
  </outline>
</glyph>
<glyph name="comma" format="2">
  <advance width="508"/>
  <unicode hex="002C"/>
  <outline>
    <contour>
      <point x="112" y="-256" type="line"/>
      <point x="286" y="-294"/>
      <point x="356" y="-144"/>
      <point x="356" y="40" type="curve" smooth="yes"/>
      <point x="356" y="196" type="line"/>
      <point x="112" y="196" type="line" name="hr00"/>
    </contour>
  </outline>
</glyph>
<glyph name="hyphen" format="2">
  <advance width="750"/>
  <unicode hex="002D"/>
  <outline>
    <contour>
      <point x="90" y="510" type="line" name="hr00"/>
      <point x="694" y="510" type="line"/>
      <point x="694" y="706" type="line"/>
      <point x="90" y="706" type="line"/>
    </contour>
  </outline>
</glyph>
<glyph name="period" format="2">
  <advance width="546"/>
  <unicode hex="002E"/>
  <outline>
    <contour>
      <point x="250" y="-30" type="curve" smooth="yes"/>
      <point x="342" y="-30"/>
      <point x="414" y="42"/>
      <point x="414" y="134" type="curve" smooth="yes"/>
      <point x="414" y="226"/>
      <point x="342" y="302"/>
      <point x="250" y="302" type="curve" smooth="yes"/>
      <point x="156" y="302"/>
      <point x="84" y="226"/>
      <point x="84" y="134" type="curve" smooth="yes" name="hr00"/>
      <point x="84" y="42"/>
      <point x="156" y="-30"/>
    </contour>
  </outline>
</glyph>
<glyph name="zero" format="2">
  <advance width="1420"/>
  <unicode hex="0030"/>
  <outline>
    <contour>
      <point x="658" y="-38" type="curve" smooth="yes"/>
      <point x="1058" y="-38"/>
      <point x="1250" y="314"/>
      <point x="1250" y="698" type="curve" smooth="yes" name="hr00"/>
      <point x="1250" y="1054"/>
      <point x="1076" y="1438"/>
      <point x="658" y="1438" type="curve" smooth="yes"/>
      <point x="294" y="1438"/>
      <point x="66" y="1140"/>
      <point x="66" y="698" type="curve" smooth="yes"/>
      <point x="66" y="240"/>
      <point x="306" y="-38"/>
    </contour>
    <contour>
      <point x="658" y="166" type="curve" smooth="yes"/>
      <point x="464" y="166"/>
      <point x="370" y="374"/>
      <point x="370" y="698" type="curve" smooth="yes"/>
      <point x="370" y="1024"/>
      <point x="462" y="1234"/>
      <point x="658" y="1234" type="curve" smooth="yes"/>
      <point x="852" y="1234"/>
      <point x="946" y="1024"/>
      <point x="946" y="698" type="curve" smooth="yes"/>
      <point x="946" y="374"/>
      <point x="852" y="166"/>
    </contour>
  </outline>
</glyph>
<glyph name="one" format="2">
  <advance width="638"/>
  <unicode hex="0031"/>
  <outline>
    <contour>
      <point x="258" y="0" type="line" name="hr00"/>
      <point x="514" y="0" type="line"/>
      <point x="514" y="1402" type="line"/>
      <point x="406" y="1402" type="line"/>
      <point x="-40" y="1162" type="line"/>
      <point x="46" y="1002" type="line"/>
      <point x="258" y="1112" type="line"/>
    </contour>
  </outline>
</glyph>
<glyph name="two" format="2">
  <advance width="1134"/>
  <unicode hex="0032"/>
  <outline>
    <contour>
      <point x="88" y="0" type="line"/>
      <point x="1010" y="0" type="line"/>
      <point x="1010" y="218" type="line"/>
      <point x="490" y="218" type="line"/>
      <point x="444" y="212" type="line"/>
      <point x="476" y="248" type="line"/>
      <point x="656" y="466"/>
      <point x="988" y="784"/>
      <point x="988" y="1044" type="curve" smooth="yes" name="hr00"/>
      <point x="988" y="1282"/>
      <point x="794" y="1426"/>
      <point x="484" y="1426" type="curve" smooth="yes"/>
      <point x="392" y="1426"/>
      <point x="274" y="1406"/>
      <point x="142" y="1344" type="curve"/>
      <point x="214" y="1160" type="line"/>
      <point x="314" y="1204"/>
      <point x="402" y="1222"/>
      <point x="464" y="1222" type="curve"/>
      <point x="594" y="1222"/>
      <point x="692" y="1150"/>
      <point x="692" y="1024" type="curve"/>
      <point x="692" y="770"/>
      <point x="200" y="380"/>
      <point x="88" y="118" type="curve"/>
    </contour>
  </outline>
</glyph>
<glyph name="three" format="2">
  <advance width="1056"/>
  <unicode hex="0033"/>
  <outline>
    <contour>
      <point x="416" y="-22" type="curve" smooth="yes"/>
      <point x="706" y="-22"/>
      <point x="948" y="138"/>
      <point x="948" y="388" type="curve" smooth="yes" name="hr01"/>
      <point x="948" y="562"/>
      <point x="838" y="696"/>
      <point x="690" y="754" type="curve"/>
      <point x="644" y="764" type="line"/>
      <point x="694" y="784" type="line"/>
      <point x="830" y="868"/>
      <point x="900" y="974"/>
      <point x="900" y="1092" type="curve" smooth="yes"/>
      <point x="900" y="1302"/>
      <point x="704" y="1424"/>
      <point x="454" y="1424" type="curve" smooth="yes"/>
      <point x="344" y="1424"/>
      <point x="220" y="1406"/>
      <point x="66" y="1342" type="curve"/>
      <point x="134" y="1156" type="line"/>
      <point x="256" y="1206"/>
      <point x="336" y="1220"/>
      <point x="412" y="1220" type="curve" smooth="yes"/>
      <point x="518" y="1220"/>
      <point x="606" y="1170"/>
      <point x="606" y="1078" type="curve" name="hr02"/>
      <point x="606" y="964"/>
      <point x="496" y="900"/>
      <point x="312" y="820" type="curve" smooth="yes"/>
      <point x="246" y="792" type="line"/>
      <point x="264" y="622" type="line"/>
      <point x="488" y="622"/>
      <point x="654" y="572"/>
      <point x="654" y="392" type="curve" smooth="yes"/>
      <point x="654" y="256"/>
      <point x="512" y="182"/>
      <point x="372" y="182" type="curve" smooth="yes"/>
      <point x="292" y="182"/>
      <point x="198" y="198"/>
      <point x="76" y="252" type="curve"/>
      <point x="10" y="70" type="line"/>
      <point x="138" y="14"/>
      <point x="270" y="-22"/>
    </contour>
  </outline>
</glyph>
<glyph name="four" format="2">
  <advance width="1190"/>
  <unicode hex="0034"/>
  <outline>
    <contour>
      <point x="700" y="0" type="line"/>
      <point x="966" y="0" type="line"/>
      <point x="966" y="282" type="line" name="hr02"/>
      <point x="1128" y="282" type="line"/>
      <point x="1128" y="484" type="line" name="hr01"/>
      <point x="966" y="484" type="line"/>
      <point x="966" y="1402" type="line"/>
      <point x="630" y="1402" type="line"/>
      <point x="46" y="476" type="line"/>
      <point x="46" y="282" type="line"/>
      <point x="628" y="282" type="line"/>
      <point x="602" y="372"/>
      <point x="544" y="484"/>
      <point x="428" y="484" type="curve"/>
      <point x="356" y="484" type="line"/>
      <point x="314" y="482" type="line"/>
      <point x="346" y="522" type="line"/>
      <point x="674" y="1046" type="line"/>
      <point x="704" y="1102" type="line"/>
      <point x="700" y="1036" type="line"/>
    </contour>
  </outline>
</glyph>
<glyph name="five" format="2">
  <advance width="1074"/>
  <unicode hex="0035"/>
  <outline>
    <contour>
      <point x="414" y="-24" type="curve" smooth="yes"/>
      <point x="736" y="-24"/>
      <point x="980" y="156"/>
      <point x="980" y="426" type="curve" smooth="yes"/>
      <point x="980" y="672"/>
      <point x="782" y="866"/>
      <point x="454" y="866" type="curve"/>
      <point x="438" y="866"/>
      <point x="416" y="866"/>
      <point x="390" y="864" type="curve"/>
      <point x="354" y="856" type="line"/>
      <point x="360" y="884" type="line" name="hr00"/>
      <point x="382" y="1184" type="line"/>
      <point x="920" y="1184" type="line"/>
      <point x="920" y="1402" type="line"/>
      <point x="158" y="1402" type="line"/>
      <point x="108" y="636" type="line"/>
      <point x="232" y="658"/>
      <point x="318" y="664"/>
      <point x="386" y="664" type="curve"/>
      <point x="562" y="664"/>
      <point x="686" y="580"/>
      <point x="686" y="430" type="curve" smooth="yes"/>
      <point x="686" y="304"/>
      <point x="582" y="180"/>
      <point x="412" y="180" type="curve" smooth="yes"/>
      <point x="338" y="180"/>
      <point x="244" y="200"/>
      <point x="106" y="254" type="curve"/>
      <point x="40" y="72" type="line"/>
      <point x="194" y="-6"/>
      <point x="312" y="-24"/>
    </contour>
  </outline>
</glyph>
<glyph name="six" format="2">
  <advance width="1250"/>
  <unicode hex="0036"/>
  <outline>
    <contour>
      <point x="680" y="-32" type="curve" smooth="yes"/>
      <point x="994" y="-32"/>
      <point x="1184" y="216"/>
      <point x="1184" y="448" type="curve" smooth="yes"/>
      <point x="1184" y="732"/>
      <point x="990" y="884"/>
      <point x="764" y="884" type="curve" smooth="yes"/>
      <point x="698" y="884"/>
      <point x="604" y="866"/>
      <point x="488" y="806" type="curve"/>
      <point x="522" y="742"/>
      <point x="580" y="660"/>
      <point x="672" y="674" type="curve"/>
      <point x="696" y="678"/>
      <point x="720" y="680"/>
      <point x="734" y="680" type="curve" smooth="yes"/>
      <point x="814" y="680"/>
      <point x="888" y="608"/>
      <point x="888" y="448" type="curve" smooth="yes"/>
      <point x="888" y="294"/>
      <point x="792" y="170"/>
      <point x="674" y="170" type="curve" smooth="yes"/>
      <point x="460" y="170"/>
      <point x="400" y="438"/>
      <point x="400" y="658" type="curve" smooth="yes"/>
      <point x="400" y="964"/>
      <point x="544" y="1216"/>
      <point x="828" y="1216" type="curve" name="hr00"/>
      <point x="880" y="1216"/>
      <point x="942" y="1210"/>
      <point x="1024" y="1186" type="curve"/>
      <point x="1088" y="1372" type="line"/>
      <point x="990" y="1404"/>
      <point x="894" y="1420"/>
      <point x="828" y="1420" type="curve"/>
      <point x="394" y="1420"/>
      <point x="106" y="1062"/>
      <point x="106" y="654" type="curve" smooth="yes"/>
      <point x="106" y="284"/>
      <point x="276" y="-32"/>
    </contour>
  </outline>
</glyph>
<glyph name="seven" format="2">
  <advance width="1006"/>
  <unicode hex="0037"/>
  <outline>
    <contour>
      <point x="210" y="0" type="curve" name="hr00"/>
      <point x="500" y="0" type="line"/>
      <point x="560" y="622"/>
      <point x="734" y="928"/>
      <point x="952" y="1208" type="curve"/>
      <point x="952" y="1402" type="line"/>
      <point x="76" y="1402" type="line"/>
      <point x="76" y="1174" type="line"/>
      <point x="602" y="1174" type="line"/>
      <point x="652" y="1178" type="line"/>
      <point x="622" y="1148" type="line"/>
      <point x="386" y="790"/>
      <point x="272" y="456"/>
    </contour>
  </outline>
</glyph>
<glyph name="eight" format="2">
  <advance width="1324"/>
  <unicode hex="0038"/>
  <outline>
    <contour>
      <point x="676" y="-26" type="curve" smooth="yes"/>
      <point x="968" y="-26"/>
      <point x="1194" y="112"/>
      <point x="1194" y="356" type="curve" smooth="yes" name="hr01"/>
      <point x="1194" y="528"/>
      <point x="1106" y="634"/>
      <point x="992" y="710" type="curve"/>
      <point x="958" y="726" type="line"/>
      <point x="998" y="756" type="line"/>
      <point x="1090" y="866"/>
      <point x="1148" y="968"/>
      <point x="1148" y="1062" type="curve" smooth="yes"/>
      <point x="1148" y="1292"/>
      <point x="948" y="1428"/>
      <point x="682" y="1428" type="curve" smooth="yes"/>
      <point x="424" y="1428"/>
      <point x="210" y="1292"/>
      <point x="210" y="1062" type="curve" smooth="yes" name="hr02"/>
      <point x="210" y="592"/>
      <point x="914" y="664"/>
      <point x="914" y="356" type="curve" smooth="yes"/>
      <point x="914" y="258"/>
      <point x="826" y="176"/>
      <point x="676" y="176" type="curve" smooth="yes"/>
      <point x="532" y="176"/>
      <point x="432" y="244"/>
      <point x="432" y="356" type="curve" smooth="yes"/>
      <point x="432" y="386"/>
      <point x="438" y="406"/>
      <point x="450" y="444" type="curve" smooth="yes"/>
      <point x="472" y="532"/>
      <point x="402" y="618"/>
      <point x="332" y="682" type="curve"/>
      <point x="204" y="550"/>
      <point x="162" y="448"/>
      <point x="162" y="356" type="curve" smooth="yes"/>
      <point x="162" y="112"/>
      <point x="376" y="-26"/>
    </contour>
    <contour>
      <point x="776" y="820" type="curve"/>
      <point x="624" y="888"/>
      <point x="490" y="944"/>
      <point x="490" y="1062" type="curve" smooth="yes"/>
      <point x="490" y="1170"/>
      <point x="574" y="1224"/>
      <point x="682" y="1224" type="curve" smooth="yes"/>
      <point x="784" y="1224"/>
      <point x="876" y="1172"/>
      <point x="876" y="1040" type="curve" name="hr03"/>
      <point x="874" y="974"/>
      <point x="842" y="898"/>
    </contour>
  </outline>
</glyph>
<glyph name="nine" format="2">
  <advance width="1248"/>
  <unicode hex="0039"/>
  <outline>
    <contour>
      <point x="462" y="-20" type="curve"/>
      <point x="896" y="-20"/>
      <point x="1184" y="336"/>
      <point x="1184" y="746" type="curve" smooth="yes"/>
      <point x="1184" y="1116"/>
      <point x="1014" y="1432"/>
      <point x="610" y="1432" type="curve" smooth="yes"/>
      <point x="294" y="1432"/>
      <point x="106" y="1184"/>
      <point x="106" y="952" type="curve" smooth="yes"/>
      <point x="106" y="668"/>
      <point x="298" y="516"/>
      <point x="526" y="516" type="curve" smooth="yes"/>
      <point x="592" y="516"/>
      <point x="686" y="534"/>
      <point x="802" y="594" type="curve"/>
      <point x="768" y="658"/>
      <point x="708" y="740"/>
      <point x="618" y="726" type="curve"/>
      <point x="594" y="722"/>
      <point x="568" y="720"/>
      <point x="556" y="720" type="curve" smooth="yes"/>
      <point x="476" y="720"/>
      <point x="402" y="792"/>
      <point x="402" y="952" type="curve" smooth="yes"/>
      <point x="402" y="1104"/>
      <point x="498" y="1228"/>
      <point x="616" y="1228" type="curve" smooth="yes"/>
      <point x="830" y="1228"/>
      <point x="890" y="960"/>
      <point x="890" y="742" type="curve" smooth="yes"/>
      <point x="890" y="436"/>
      <point x="746" y="184"/>
      <point x="462" y="184" type="curve" name="hr00"/>
      <point x="410" y="184"/>
      <point x="348" y="190"/>
      <point x="266" y="212" type="curve"/>
      <point x="202" y="28" type="line"/>
      <point x="298" y="-6"/>
      <point x="396" y="-20"/>
    </contour>
  </outline>
</glyph>
<glyph name="less" format="2">
  <advance width="1226"/>
  <unicode hex="003C"/>
  <outline>
    <contour>
      <point x="1108" y="0" type="line"/>
      <point x="1108" y="262" type="line" name="hr00"/>
      <point x="414" y="540" type="line"/>
      <point x="362" y="552" type="line"/>
      <point x="414" y="566" type="line"/>
      <point x="1108" y="844" type="line"/>
      <point x="1108" y="1104" type="line"/>
      <point x="74" y="642" type="line"/>
      <point x="74" y="462" type="line"/>
    </contour>
  </outline>
</glyph>
<glyph name="equal" format="2">
  <advance width="1212"/>
  <unicode hex="003D"/>
  <outline>
    <contour>
      <point x="134" y="764" type="line"/>
      <point x="1078" y="764" type="line"/>
      <point x="1078" y="960" type="line"/>
      <point x="134" y="960" type="line"/>
    </contour>
    <contour>
      <point x="134" y="322" type="line"/>
      <point x="1078" y="322" type="line"/>
      <point x="1078" y="518" type="line"/>
      <point x="134" y="518" type="line" name="hr00"/>
    </contour>
  </outline>
</glyph>
<glyph name="greater" format="2">
  <advance width="1226"/>
  <unicode hex="003E"/>
  <outline>
    <contour>
      <point x="110" y="0" type="line"/>
      <point x="1144" y="462" type="line"/>
      <point x="1144" y="642" type="line"/>
      <point x="110" y="1104" type="line"/>
      <point x="110" y="844" type="line"/>
      <point x="804" y="566" type="line"/>
      <point x="856" y="552" type="line"/>
      <point x="804" y="540" type="line" name="hr00"/>
      <point x="110" y="262" type="line"/>
    </contour>
  </outline>
</glyph>
<glyph name="question" format="2">
  <advance width="1166"/>
  <unicode hex="003F"/>
  <outline>
    <contour>
      <point x="364" y="460" type="curve"/>
      <point x="600" y="460" type="line"/>
      <point x="600" y="724"/>
      <point x="986" y="866"/>
      <point x="986" y="1148" type="curve" smooth="yes"/>
      <point x="986" y="1356"/>
      <point x="796" y="1474"/>
      <point x="530" y="1474" type="curve" smooth="yes"/>
      <point x="420" y="1474"/>
      <point x="318" y="1458"/>
      <point x="170" y="1392" type="curve"/>
      <point x="242" y="1204" type="line"/>
      <point x="370" y="1258"/>
      <point x="434" y="1266"/>
      <point x="510" y="1266" type="curve"/>
      <point x="624" y="1266"/>
      <point x="700" y="1208"/>
      <point x="700" y="1118" type="curve" smooth="yes"/>
      <point x="700" y="920"/>
      <point x="364" y="824"/>
    </contour>
    <contour>
      <point x="482" y="-28" type="curve" smooth="yes"/>
      <point x="574" y="-28"/>
      <point x="646" y="44"/>
      <point x="646" y="136" type="curve" smooth="yes"/>
      <point x="646" y="228"/>
      <point x="574" y="304"/>
      <point x="482" y="304" type="curve" smooth="yes"/>
      <point x="388" y="304"/>
      <point x="316" y="228"/>
      <point x="316" y="136" type="curve" smooth="yes" name="hr01"/>
      <point x="316" y="44"/>
      <point x="388" y="-28"/>
    </contour>
  </outline>
</glyph>
<glyph name="at" format="2">
  <advance width="1838"/>
  <unicode hex="0040"/>
  <outline>
    <contour>
      <point x="894" y="-264" type="curve" smooth="yes"/>
      <point x="1026" y="-264"/>
      <point x="1128" y="-256"/>
      <point x="1318" y="-192" type="curve"/>
      <point x="1260" y="-38" type="line"/>
      <point x="1096" y="-88"/>
      <point x="1010" y="-96"/>
      <point x="894" y="-96" type="curve" smooth="yes"/>
      <point x="580" y="-96"/>
      <point x="346" y="134"/>
      <point x="346" y="514" type="curve" smooth="yes"/>
      <point x="346" y="896"/>
      <point x="580" y="1128"/>
      <point x="922" y="1128" type="curve" smooth="yes"/>
      <point x="1236" y="1128"/>
      <point x="1456" y="944"/>
      <point x="1456" y="656" type="curve" smooth="yes"/>
      <point x="1456" y="546"/>
      <point x="1404" y="404"/>
      <point x="1282" y="322" type="curve"/>
      <point x="1254" y="298" type="line"/>
      <point x="1258" y="340" type="line" name="hr00"/>
      <point x="1258" y="598" type="line"/>
      <point x="1258" y="820"/>
      <point x="1134" y="932"/>
      <point x="916" y="932" type="curve" smooth="yes"/>
      <point x="832" y="932"/>
      <point x="754" y="920"/>
      <point x="646" y="878" type="curve"/>
      <point x="698" y="744" type="line"/>
      <point x="786" y="772"/>
      <point x="832" y="778"/>
      <point x="888" y="778" type="curve" smooth="yes"/>
      <point x="1004" y="778"/>
      <point x="1072" y="730"/>
      <point x="1072" y="608" type="curve"/>
      <point x="1072" y="350" type="line"/>
      <point x="1010" y="268"/>
      <point x="944" y="236"/>
      <point x="876" y="236" type="curve" smooth="yes"/>
      <point x="802" y="236"/>
      <point x="758" y="272"/>
      <point x="758" y="324" type="curve" smooth="yes"/>
      <point x="758" y="374"/>
      <point x="778" y="422"/>
      <point x="888" y="438" type="curve" smooth="yes"/>
      <point x="968" y="450"/>
      <point x="996" y="554"/>
      <point x="1000" y="590" type="curve"/>
      <point x="684" y="560"/>
      <point x="568" y="474"/>
      <point x="568" y="316" type="curve" smooth="yes"/>
      <point x="568" y="182"/>
      <point x="674" y="94"/>
      <point x="836" y="94" type="curve" smooth="yes"/>
      <point x="908" y="94"/>
      <point x="980" y="112"/>
      <point x="1058" y="190" type="curve"/>
      <point x="1078" y="230" type="line"/>
      <point x="1082" y="192" type="line"/>
      <point x="1094" y="158"/>
      <point x="1106" y="126"/>
      <point x="1136" y="110" type="curve"/>
      <point x="1430" y="162"/>
      <point x="1654" y="392"/>
      <point x="1654" y="656" type="curve" smooth="yes"/>
      <point x="1654" y="1068"/>
      <point x="1306" y="1296"/>
      <point x="924" y="1296" type="curve" smooth="yes"/>
      <point x="520" y="1296"/>
      <point x="150" y="1012"/>
      <point x="150" y="514" type="curve" smooth="yes"/>
      <point x="150" y="-22"/>
      <point x="486" y="-264"/>
    </contour>
  </outline>
</glyph>
<glyph name="A" format="2">
  <advance width="1444"/>
  <unicode hex="0041"/>
  <anchor x="722" y="0" name="bottom"/>
  <anchor x="1384" y="0" name="ogonek"/>
  <anchor x="722" y="1454" name="top"/>
  <outline>
    <contour>
      <point x="60" y="0" type="line"/>
      <point x="342" y="0" type="line"/>
      <point x="448" y="318" type="line" name="hr00"/>
      <point x="882" y="318" type="line"/>
      <point x="854" y="406"/>
      <point x="798" y="524"/>
      <point x="682" y="524" type="curve" smooth="yes"/>
      <point x="530" y="524" type="line"/>
      <point x="500" y="520" type="line"/>
      <point x="524" y="560" type="line"/>
      <point x="694" y="1078" type="line"/>
      <point x="712" y="1156" type="line"/>
      <point x="728" y="1082" type="line"/>
      <point x="1088" y="0" type="line"/>
      <point x="1384" y="0" type="line"/>
      <point x="862" y="1454" type="line"/>
      <point x="582" y="1454" type="line"/>
    </contour>
  </outline>
</glyph>
<glyph name="B" format="2">
  <advance width="1354"/>
  <unicode hex="0042"/>
  <anchor x="670" y="0" name="bottom"/>
  <anchor x="670" y="1454" name="top"/>
  <outline>
    <contour>
      <point x="752" y="-22" type="curve" smooth="yes"/>
      <point x="1066" y="-22"/>
      <point x="1260" y="204"/>
      <point x="1260" y="410" type="curve" smooth="yes" name="hr03"/>
      <point x="1260" y="554"/>
      <point x="1152" y="710"/>
      <point x="1006" y="762" type="curve"/>
      <point x="950" y="776" type="line"/>
      <point x="1008" y="804" type="line"/>
      <point x="1106" y="866"/>
      <point x="1174" y="972"/>
      <point x="1174" y="1070" type="curve" name="hr02"/>
      <point x="1174" y="1316"/>
      <point x="982" y="1480"/>
      <point x="622" y="1480" type="curve" smooth="yes"/>
      <point x="478" y="1480"/>
      <point x="376" y="1468"/>
      <point x="162" y="1432" type="curve"/>
      <point x="162" y="0" type="line"/>
      <point x="442" y="0" type="line"/>
      <point x="442" y="668" type="line"/>
      <point x="622" y="668" type="line" smooth="yes"/>
      <point x="820" y="668"/>
      <point x="966" y="570"/>
      <point x="966" y="412" type="curve" smooth="yes" name="hr01"/>
      <point x="966" y="266"/>
      <point x="866" y="184"/>
      <point x="728" y="180" type="curve" smooth="yes"/>
      <point x="726" y="180"/>
      <point x="722" y="180"/>
      <point x="720" y="180" type="curve" smooth="yes"/>
      <point x="612" y="180"/>
      <point x="552" y="82"/>
      <point x="520" y="12" type="curve"/>
      <point x="636" y="-16"/>
      <point x="678" y="-22"/>
    </contour>
    <contour>
      <point x="442" y="856" type="line"/>
      <point x="442" y="1264" type="line"/>
      <point x="514" y="1274"/>
      <point x="550" y="1278"/>
      <point x="622" y="1278" type="curve" smooth="yes"/>
      <point x="812" y="1278"/>
      <point x="886" y="1162"/>
      <point x="886" y="1068" type="curve" smooth="yes"/>
      <point x="886" y="942"/>
      <point x="760" y="856"/>
      <point x="622" y="856" type="curve"/>
    </contour>
  </outline>
</glyph>
<glyph name="C" format="2">
  <advance width="1204"/>
  <unicode hex="0043"/>
  <anchor x="750" y="0" name="bottom"/>
  <anchor x="764" y="1454" name="top"/>
  <outline>
    <contour>
      <point x="870" y="-24" type="curve" name="hr00"/>
      <point x="982" y="-24"/>
      <point x="1104" y="6"/>
      <point x="1222" y="68" type="curve"/>
      <point x="1148" y="250" type="line"/>
      <point x="1050" y="204"/>
      <point x="962" y="182"/>
      <point x="870" y="182" type="curve"/>
      <point x="552" y="182"/>
      <point x="400" y="452"/>
      <point x="400" y="728" type="curve"/>
      <point x="400" y="1004"/>
      <point x="552" y="1274"/>
      <point x="870" y="1274" type="curve" smooth="yes"/>
      <point x="962" y="1274"/>
      <point x="1032" y="1262"/>
      <point x="1150" y="1228" type="curve"/>
      <point x="1222" y="1412" type="line"/>
      <point x="1096" y="1460"/>
      <point x="982" y="1480"/>
      <point x="870" y="1480" type="curve" smooth="yes"/>
      <point x="388" y="1480"/>
      <point x="96" y="1144"/>
      <point x="96" y="728" type="curve"/>
      <point x="96" y="306"/>
      <point x="376" y="-24"/>
    </contour>
  </outline>
</glyph>
<glyph name="D" format="2">
  <advance width="1494"/>
  <unicode hex="0044"/>
  <anchor x="748" y="0" name="bottom"/>
  <anchor x="432" y="712" name="center"/>
  <anchor x="748" y="1454" name="top"/>
  <outline>
    <contour>
      <point x="756" y="-24" type="curve" name="hr02"/>
      <point x="1164" y="-24"/>
      <point x="1466" y="308"/>
      <point x="1466" y="730" type="curve" smooth="yes"/>
      <point x="1466" y="1204"/>
      <point x="1152" y="1480"/>
      <point x="620" y="1480" type="curve" smooth="yes"/>
      <point x="504" y="1480"/>
      <point x="344" y="1466"/>
      <point x="166" y="1428" type="curve"/>
      <point x="166" y="0" type="line"/>
      <point x="448" y="0" type="line" name="hr01"/>
      <point x="448" y="1258" type="line"/>
      <point x="510" y="1268"/>
      <point x="568" y="1274"/>
      <point x="620" y="1274" type="curve" smooth="yes"/>
      <point x="1006" y="1274"/>
      <point x="1164" y="1044"/>
      <point x="1164" y="730" type="curve" smooth="yes"/>
      <point x="1164" y="464"/>
      <point x="1034" y="188"/>
      <point x="734" y="182" type="curve" smooth="yes"/>
      <point x="732" y="182"/>
      <point x="728" y="182"/>
      <point x="726" y="182" type="curve" smooth="yes"/>
      <point x="616" y="182"/>
      <point x="556" y="80"/>
      <point x="524" y="10" type="curve"/>
      <point x="640" y="-20"/>
      <point x="682" y="-24"/>
    </contour>
  </outline>
</glyph>
<glyph name="E" format="2">
  <advance width="1176"/>
  <unicode hex="0045"/>
  <anchor x="630" y="0" name="bottom"/>
  <anchor x="1058" y="20" name="ogonek"/>
  <anchor x="610" y="1454" name="top"/>
  <anchor x="40" y="1454" name="topleft"/>
  <outline>
    <contour>
      <point x="166" y="0" type="line"/>
      <point x="1070" y="0" type="line"/>
      <point x="1070" y="206" type="line"/>
      <point x="452" y="206" type="line"/>
      <point x="452" y="1248" type="line"/>
      <point x="1038" y="1248" type="line"/>
      <point x="1038" y="1454" type="line"/>
      <point x="166" y="1454" type="line" name="hr00"/>
    </contour>
    <contour>
      <point x="528" y="662" type="curve"/>
      <point x="970" y="662" type="line"/>
      <point x="970" y="864" type="line"/>
      <point x="728" y="864" type="line"/>
      <point x="612" y="864"/>
      <point x="554" y="750"/>
    </contour>
  </outline>
</glyph>
<glyph name="F" format="2">
  <advance width="1168"/>
  <unicode hex="0046"/>
  <anchor x="310" y="0" name="bottom"/>
  <anchor x="594" y="1454" name="top"/>
  <outline>
    <contour>
      <point x="166" y="0" type="line"/>
      <point x="452" y="0" type="line"/>
      <point x="452" y="1248" type="line"/>
      <point x="1038" y="1248" type="line"/>
      <point x="1038" y="1454" type="line"/>
      <point x="166" y="1454" type="line" name="hr00"/>
    </contour>
    <contour>
      <point x="528" y="662" type="curve"/>
      <point x="970" y="662" type="line"/>
      <point x="970" y="864" type="line"/>
      <point x="728" y="864" type="line"/>
      <point x="612" y="864"/>
      <point x="554" y="750"/>
    </contour>
  </outline>
</glyph>
<glyph name="G" format="2">
  <advance width="1448"/>
  <unicode hex="0047"/>
  <anchor x="820" y="0" name="bottom"/>
  <anchor x="820" y="1454" name="top"/>
  <outline>
    <contour>
      <point x="876" y="-24" type="curve" smooth="yes"/>
      <point x="988" y="-24"/>
      <point x="1178" y="8"/>
      <point x="1324" y="74" type="curve"/>
      <point x="1324" y="674" type="line"/>
      <point x="1068" y="674" type="line"/>
      <point x="1068" y="204" type="line"/>
      <point x="984" y="184"/>
      <point x="934" y="182"/>
      <point x="876" y="182" type="curve" smooth="yes"/>
      <point x="558" y="182"/>
      <point x="388" y="450"/>
      <point x="388" y="726" type="curve" smooth="yes"/>
      <point x="388" y="1016"/>
      <point x="564" y="1274"/>
      <point x="882" y="1274" type="curve" smooth="yes" name="hr00"/>
      <point x="974" y="1274"/>
      <point x="1080" y="1258"/>
      <point x="1230" y="1200" type="curve"/>
      <point x="1304" y="1392" type="line"/>
      <point x="1152" y="1456"/>
      <point x="994" y="1480"/>
      <point x="882" y="1480" type="curve" smooth="yes"/>
      <point x="394" y="1480"/>
      <point x="84" y="1146"/>
      <point x="84" y="726" type="curve" smooth="yes"/>
      <point x="84" y="308"/>
      <point x="382" y="-24"/>
    </contour>
  </outline>
</glyph>
<glyph name="H" format="2">
  <advance width="1528"/>
  <unicode hex="0048"/>
  <anchor x="768" y="0" name="bottom"/>
  <anchor x="768" y="728" name="center"/>
  <anchor x="768" y="1454" name="top"/>
  <anchor x="40" y="1454" name="topleft"/>
  <outline>
    <contour>
      <point x="1082" y="0" type="line"/>
      <point x="1364" y="0" type="line"/>
      <point x="1364" y="1454" type="line"/>
      <point x="1082" y="1454" type="line"/>
      <point x="1082" y="866" type="line"/>
      <point x="728" y="866" type="line"/>
      <point x="612" y="866"/>
      <point x="554" y="748"/>
      <point x="528" y="660" type="curve" name="hr00"/>
      <point x="1082" y="660" type="line"/>
    </contour>
    <contour>
      <point x="166" y="0" type="line"/>
      <point x="452" y="0" type="line"/>
      <point x="452" y="1454" type="line"/>
      <point x="166" y="1454" type="line"/>
    </contour>
  </outline>
</glyph>
<glyph name="I" format="2">
  <advance width="612"/>
  <unicode hex="0049"/>
  <anchor x="306" y="0" name="bottom"/>
  <anchor x="444" y="0" name="ogonek"/>
  <anchor x="306" y="1454" name="top"/>
  <anchor x="40" y="1454" name="topleft"/>
  <outline>
    <contour>
      <point x="166" y="0" type="line"/>
      <point x="444" y="0" type="line" name="hr00"/>
      <point x="444" y="1454" type="line"/>
      <point x="166" y="1454" type="line"/>
    </contour>
  </outline>
</glyph>
<glyph name="J" format="2">
  <advance width="738"/>
  <unicode hex="004A"/>
  <anchor x="340" y="-422" name="bottom"/>
  <anchor x="438" y="1454" name="top"/>
  <outline>
    <contour>
      <point x="108" y="-444" type="line"/>
      <point x="416" y="-238"/>
      <point x="580" y="-116"/>
      <point x="580" y="256" type="curve" name="hr00"/>
      <point x="580" y="1454" type="line"/>
      <point x="296" y="1454" type="line"/>
      <point x="296" y="256" type="line"/>
      <point x="296" y="-20"/>
      <point x="180" y="-116"/>
      <point x="-20" y="-280" type="curve"/>
    </contour>
  </outline>
</glyph>
<glyph name="K" format="2">
  <advance width="1418"/>
  <unicode hex="004B"/>
  <anchor x="710" y="0" name="bottom"/>
  <anchor x="710" y="1454" name="top"/>
  <outline>
    <contour>
      <point x="1058" y="0" type="line"/>
      <point x="1386" y="0" type="line"/>
      <point x="868" y="872" type="line" name="hr00"/>
      <point x="1316" y="1454" type="line"/>
      <point x="1002" y="1454" type="line"/>
      <point x="672" y="994" type="line" smooth="yes"/>
      <point x="578" y="866"/>
      <point x="520" y="664"/>
      <point x="566" y="486" type="curve"/>
      <point x="692" y="648" type="line"/>
      <point x="716" y="692" type="line"/>
      <point x="730" y="644" type="line"/>
    </contour>
    <contour>
      <point x="166" y="0" type="line"/>
      <point x="452" y="0" type="line"/>
      <point x="452" y="1454" type="line"/>
      <point x="166" y="1454" type="line"/>
    </contour>
  </outline>
</glyph>
<glyph name="L" format="2">
  <advance width="1062"/>
  <unicode hex="004C"/>
  <anchor x="570" y="0" name="bottom"/>
  <anchor x="308" y="728" name="center"/>
  <anchor x="308" y="1454" name="top"/>
  <anchor x="1022" y="1454" name="topright"/>
  <outline>
    <contour>
      <point x="164" y="0" type="line"/>
      <point x="976" y="0" type="line"/>
      <point x="976" y="208" type="line"/>
      <point x="452" y="208" type="line"/>
      <point x="452" y="1454" type="line"/>
      <point x="164" y="1454" type="line" name="hr00"/>
    </contour>
  </outline>
</glyph>
<glyph name="M" format="2">
  <advance width="1964"/>
  <unicode hex="004D"/>
  <anchor x="982" y="0" name="bottom"/>
  <anchor x="982" y="1454" name="top"/>
  <outline>
    <contour>
      <point x="148" y="0" type="line"/>
      <point x="410" y="0" type="line"/>
      <point x="484" y="1098" type="line"/>
      <point x="490" y="1192" type="line"/>
      <point x="514" y="1098" type="line"/>
      <point x="834" y="20" type="line"/>
      <point x="1128" y="20" type="line"/>
      <point x="1444" y="1096" type="line"/>
      <point x="1468" y="1192" type="line"/>
      <point x="1474" y="1096" type="line"/>
      <point x="1552" y="0" type="line"/>
      <point x="1814" y="0" type="line"/>
      <point x="1678" y="1454" type="line"/>
      <point x="1314" y="1454" type="line"/>
      <point x="998" y="332" type="line"/>
      <point x="982" y="260" type="line"/>
      <point x="968" y="332" type="line"/>
      <point x="650" y="1454" type="line"/>
      <point x="288" y="1454" type="line" name="hr00"/>
    </contour>
  </outline>
</glyph>
<glyph name="N" format="2">
  <advance width="1556"/>
  <unicode hex="004E"/>
  <anchor x="776" y="0" name="bottom"/>
  <anchor x="784" y="1454" name="top"/>
  <outline>
    <contour>
      <point x="188" y="0" type="line"/>
      <point x="432" y="0" type="line"/>
      <point x="432" y="1022" type="line"/>
      <point x="428" y="1090" type="line"/>
      <point x="460" y="1018" type="line" name="hr00"/>
      <point x="1102" y="0" type="line"/>
      <point x="1354" y="0" type="line"/>
      <point x="1354" y="1454" type="line"/>
      <point x="1102" y="1454" type="line"/>
      <point x="1102" y="476" type="line"/>
      <point x="1106" y="396" type="line"/>
      <point x="1078" y="476" type="line"/>
      <point x="464" y="1454" type="line"/>
      <point x="188" y="1454" type="line"/>
    </contour>
  </outline>
</glyph>
<glyph name="O" format="2">
  <advance width="1578"/>
  <unicode hex="004F"/>
  <anchor x="810" y="0" name="bottom"/>
  <anchor x="810" y="728" name="center"/>
  <anchor x="1420" y="0" name="ogonek"/>
  <anchor x="810" y="1454" name="top"/>
  <anchor x="40" y="1454" name="topleft"/>
  <anchor x="1538" y="1454" name="topright"/>
  <outline>
    <contour>
      <point x="810" y="-28" type="curve"/>
      <point x="1274" y="-28"/>
      <point x="1532" y="336"/>
      <point x="1532" y="728" type="curve"/>
      <point x="1532" y="1082"/>
      <point x="1332" y="1484"/>
      <point x="810" y="1484" type="curve"/>
      <point x="352" y="1484"/>
      <point x="86" y="1146"/>
      <point x="86" y="728" type="curve"/>
      <point x="86" y="298"/>
      <point x="348" y="-28"/>
    </contour>
    <contour>
      <point x="810" y="178" type="curve"/>
      <point x="534" y="178"/>
      <point x="390" y="452"/>
      <point x="390" y="728" type="curve"/>
      <point x="390" y="1024"/>
      <point x="534" y="1278"/>
      <point x="810" y="1278" type="curve" name="hr00"/>
      <point x="1074" y="1278"/>
      <point x="1230" y="1042"/>
      <point x="1230" y="728" type="curve"/>
      <point x="1230" y="378"/>
      <point x="1030" y="178"/>
    </contour>
  </outline>
</glyph>
<glyph name="P" format="2">
  <advance width="1286"/>
  <unicode hex="0050"/>
  <anchor x="310" y="0" name="bottom"/>
  <anchor x="646" y="1454" name="top"/>
  <outline>
    <contour>
      <point x="166" y="0" type="line"/>
      <point x="454" y="0" type="line"/>
      <point x="454" y="1264" type="line"/>
      <point x="526" y="1272"/>
      <point x="550" y="1276"/>
      <point x="622" y="1276" type="curve" smooth="yes"/>
      <point x="788" y="1276"/>
      <point x="900" y="1164"/>
      <point x="900" y="1026" type="curve"/>
      <point x="900" y="896"/>
      <point x="810" y="788"/>
      <point x="700" y="778" type="curve" smooth="yes"/>
      <point x="610" y="770"/>
      <point x="558" y="672"/>
      <point x="528" y="596" type="curve"/>
      <point x="602" y="574"/>
      <point x="670" y="572"/>
      <point x="730" y="578" type="curve" smooth="yes"/>
      <point x="968" y="600"/>
      <point x="1194" y="760"/>
      <point x="1194" y="1026" type="curve" smooth="yes" name="hr00"/>
      <point x="1194" y="1308"/>
      <point x="946" y="1482"/>
      <point x="622" y="1482" type="curve"/>
      <point x="478" y="1482"/>
      <point x="382" y="1472"/>
      <point x="166" y="1436" type="curve"/>
    </contour>
  </outline>
</glyph>
<glyph name="Q" format="2">
  <advance width="1562"/>
  <unicode hex="0051"/>
  <anchor x="804" y="0" name="bottom"/>
  <anchor x="816" y="1454" name="top"/>
  <outline>
    <contour>
      <point x="788" y="-28" type="curve"/>
      <point x="880" y="-28"/>
      <point x="984" y="4"/>
      <point x="1080" y="68" type="curve"/>
      <point x="1038" y="116"/>
      <point x="958" y="182"/>
      <point x="870" y="182" type="curve" smooth="yes"/>
      <point x="846" y="182"/>
      <point x="806" y="178"/>
      <point x="788" y="178" type="curve" name="hr02"/>
      <point x="534" y="178"/>
      <point x="390" y="452"/>
      <point x="390" y="728" type="curve"/>
      <point x="390" y="1024"/>
      <point x="534" y="1278"/>
      <point x="810" y="1278" type="curve"/>
      <point x="1086" y="1278"/>
      <point x="1230" y="1024"/>
      <point x="1230" y="728" type="curve" smooth="yes"/>
      <point x="1230" y="638"/>
      <point x="1214" y="536"/>
      <point x="1178" y="452" type="curve"/>
      <point x="1166" y="400" type="line"/>
      <point x="1140" y="442" type="line"/>
      <point x="980" y="606" type="line"/>
      <point x="828" y="452" type="line"/>
      <point x="1322" y="-52" type="line" name="hr01"/>
      <point x="1474" y="100" type="line"/>
      <point x="1350" y="228" type="line"/>
      <point x="1458" y="366"/>
      <point x="1532" y="546"/>
      <point x="1532" y="728" type="curve" smooth="yes"/>
      <point x="1532" y="1168"/>
      <point x="1260" y="1484"/>
      <point x="810" y="1484" type="curve"/>
      <point x="368" y="1484"/>
      <point x="86" y="1164"/>
      <point x="86" y="728" type="curve"/>
      <point x="86" y="286"/>
      <point x="358" y="-28"/>
    </contour>
  </outline>
</glyph>
<glyph name="R" format="2">
  <advance width="1368"/>
  <unicode hex="0052"/>
  <anchor x="678" y="0" name="bottom"/>
  <anchor x="656" y="1454" name="top"/>
  <outline>
    <contour>
      <point x="166" y="0" type="line"/>
      <point x="454" y="0" type="line"/>
      <point x="454" y="1264" type="line"/>
      <point x="526" y="1272"/>
      <point x="550" y="1276"/>
      <point x="622" y="1276" type="curve" smooth="yes"/>
      <point x="778" y="1276"/>
      <point x="900" y="1174"/>
      <point x="900" y="1036" type="curve" smooth="yes"/>
      <point x="900" y="906"/>
      <point x="810" y="810"/>
      <point x="700" y="800" type="curve" smooth="yes"/>
      <point x="610" y="792"/>
      <point x="558" y="692"/>
      <point x="528" y="616" type="curve"/>
      <point x="596" y="596"/>
      <point x="660" y="594"/>
      <point x="716" y="598" type="curve"/>
      <point x="866" y="482"/>
      <point x="868" y="204"/>
      <point x="962" y="0" type="curve"/>
      <point x="1256" y="0" type="line"/>
      <point x="1138" y="256"/>
      <point x="1146" y="504"/>
      <point x="984" y="642" type="curve"/>
      <point x="940" y="664" type="line"/>
      <point x="996" y="686" type="line"/>
      <point x="1114" y="758"/>
      <point x="1194" y="878"/>
      <point x="1194" y="1036" type="curve" smooth="yes" name="hr00"/>
      <point x="1194" y="1318"/>
      <point x="936" y="1482"/>
      <point x="622" y="1482" type="curve" smooth="yes"/>
      <point x="478" y="1482"/>
      <point x="382" y="1472"/>
      <point x="166" y="1436" type="curve"/>
    </contour>
  </outline>
</glyph>
<glyph name="S" format="2">
  <advance width="1154"/>
  <unicode hex="0053"/>
  <anchor x="578" y="0" name="bottom"/>
  <anchor x="572" y="1454" name="top"/>
  <outline>
    <contour>
      <point x="552" y="-26" type="curve"/>
      <point x="856" y="-26"/>
      <point x="1062" y="118"/>
      <point x="1062" y="376" type="curve" smooth="yes"/>
      <point x="1062" y="840"/>
      <point x="380" y="852"/>
      <point x="380" y="1124" type="curve" smooth="yes"/>
      <point x="380" y="1214"/>
      <point x="458" y="1280"/>
      <point x="578" y="1280" type="curve" name="hr00"/>
      <point x="666" y="1280"/>
      <point x="760" y="1266"/>
      <point x="878" y="1232" type="curve"/>
      <point x="952" y="1414" type="line"/>
      <point x="784" y="1468"/>
      <point x="682" y="1480"/>
      <point x="560" y="1480" type="curve"/>
      <point x="322" y="1480"/>
      <point x="120" y="1362"/>
      <point x="120" y="1100" type="curve" smooth="yes"/>
      <point x="120" y="664"/>
      <point x="798" y="660"/>
      <point x="798" y="370" type="curve" smooth="yes"/>
      <point x="798" y="266"/>
      <point x="694" y="180"/>
      <point x="552" y="180" type="curve"/>
      <point x="450" y="180"/>
      <point x="322" y="202"/>
      <point x="178" y="270" type="curve"/>
      <point x="102" y="84" type="line"/>
      <point x="284" y="0"/>
      <point x="438" y="-26"/>
    </contour>
  </outline>
</glyph>
<glyph name="T" format="2">
  <advance width="1068"/>
  <unicode hex="0054"/>
  <anchor x="534" y="0" name="bottom"/>
  <anchor x="534" y="728" name="center"/>
  <anchor x="534" y="1454" name="top"/>
  <outline>
    <contour>
      <point x="390" y="0" type="line"/>
      <point x="674" y="0" type="line"/>
      <point x="674" y="1248" type="line"/>
      <point x="1054" y="1248" type="line"/>
      <point x="1054" y="1454" type="line"/>
      <point x="10" y="1454" type="line"/>
      <point x="10" y="1248" type="line" name="hr00"/>
      <point x="390" y="1248" type="line"/>
    </contour>
  </outline>
</glyph>
<glyph name="U" format="2">
  <advance width="1454"/>
  <unicode hex="0055"/>
  <anchor x="748" y="0" name="bottom"/>
  <anchor x="1308" y="0" name="ogonek"/>
  <anchor x="748" y="1454" name="top"/>
  <anchor x="1414" y="1454" name="topright"/>
  <outline>
    <contour>
      <point x="748" y="-28" type="curve" smooth="yes" name="hr00"/>
      <point x="1106" y="-28"/>
      <point x="1328" y="202"/>
      <point x="1328" y="556" type="curve" smooth="yes"/>
      <point x="1328" y="1454" type="line"/>
      <point x="1048" y="1454" type="line"/>
      <point x="1048" y="526" type="line" smooth="yes"/>
      <point x="1048" y="308"/>
      <point x="918" y="178"/>
      <point x="748" y="178" type="curve" smooth="yes"/>
      <point x="576" y="178"/>
      <point x="448" y="308"/>
      <point x="448" y="526" type="curve" smooth="yes"/>
      <point x="448" y="1454" type="line"/>
      <point x="166" y="1454" type="line"/>
      <point x="166" y="556" type="line" smooth="yes"/>
      <point x="166" y="178"/>
      <point x="390" y="-28"/>
    </contour>
  </outline>
</glyph>
<glyph name="V" format="2">
  <advance width="1334"/>
  <unicode hex="0056"/>
  <anchor x="668" y="0" name="bottom"/>
  <anchor x="668" y="1454" name="top"/>
  <outline>
    <contour>
      <point x="526" y="0" type="line" name="hr00"/>
      <point x="820" y="0" type="line"/>
      <point x="1326" y="1454" type="line"/>
      <point x="1032" y="1454" type="line"/>
      <point x="690" y="348" type="line"/>
      <point x="676" y="274" type="line"/>
      <point x="662" y="350" type="line"/>
      <point x="320" y="1454" type="line"/>
      <point x="16" y="1454" type="line"/>
    </contour>
  </outline>
</glyph>
<glyph name="W" format="2">
  <advance width="2118"/>
  <unicode hex="0057"/>
  <anchor x="1064" y="0" name="bottom"/>
  <anchor x="1066" y="1454" name="top"/>
  <outline>
    <contour>
      <point x="474" y="0" type="line"/>
      <point x="762" y="0" type="line"/>
      <point x="1046" y="1072" type="line"/>
      <point x="1062" y="1152" type="line"/>
      <point x="1080" y="1070" type="line"/>
      <point x="1364" y="0" type="line"/>
      <point x="1646" y="0" type="line"/>
      <point x="2056" y="1454" type="line"/>
      <point x="1784" y="1454" type="line"/>
      <point x="1514" y="384" type="line"/>
      <point x="1498" y="276" type="line"/>
      <point x="1478" y="388" type="line"/>
      <point x="1222" y="1434" type="line" name="hr00"/>
      <point x="908" y="1434" type="line"/>
      <point x="648" y="386" type="line"/>
      <point x="626" y="276" type="line"/>
      <point x="610" y="386" type="line"/>
      <point x="340" y="1454" type="line"/>
      <point x="62" y="1454" type="line"/>
    </contour>
  </outline>
</glyph>
<glyph name="X" format="2">
  <advance width="1322"/>
  <unicode hex="0058"/>
  <anchor x="662" y="0" name="bottom"/>
  <anchor x="662" y="1454" name="top"/>
  <outline>
    <contour>
      <point x="950" y="0" type="line"/>
      <point x="1260" y="0" type="line"/>
      <point x="804" y="736" type="line"/>
      <point x="1238" y="1454" type="line"/>
      <point x="924" y="1454" type="line"/>
      <point x="678" y="976" type="line"/>
      <point x="662" y="914" type="line"/>
      <point x="642" y="976" type="line"/>
      <point x="396" y="1454" type="line"/>
      <point x="80" y="1454" type="line" name="hr00"/>
    </contour>
    <contour>
      <point x="58" y="0" type="line"/>
      <point x="364" y="0" type="line"/>
      <point x="526" y="290" type="line"/>
      <point x="594" y="414"/>
      <point x="504" y="582"/>
      <point x="454" y="650" type="curve"/>
    </contour>
  </outline>
</glyph>
<glyph name="Y" format="2">
  <advance width="1398"/>
  <unicode hex="0059"/>
  <anchor x="690" y="0" name="bottom"/>
  <anchor x="684" y="1454" name="top"/>
  <anchor x="40" y="1454" name="topleft"/>
  <outline>
    <contour>
      <point x="552" y="0" type="line"/>
      <point x="828" y="0" type="line"/>
      <point x="828" y="678" type="line" name="hr00"/>
      <point x="362" y="1454" type="line"/>
      <point x="50" y="1454" type="line"/>
      <point x="552" y="644" type="line"/>
    </contour>
    <contour>
      <point x="888" y="754" type="curve"/>
      <point x="1312" y="1454" type="line"/>
      <point x="1004" y="1454" type="line"/>
      <point x="816" y="1114" type="line"/>
      <point x="748" y="986"/>
      <point x="836" y="822"/>
    </contour>
  </outline>
</glyph>
<glyph name="Z" format="2">
  <advance width="1224"/>
  <unicode hex="005A"/>
  <anchor x="640" y="0" name="bottom"/>
  <anchor x="662" y="1454" name="top"/>
  <outline>
    <contour>
      <point x="94" y="0" type="line"/>
      <point x="1186" y="0" type="line"/>
      <point x="1186" y="206" type="line"/>
      <point x="470" y="206" type="line"/>
      <point x="424" y="200" type="line"/>
      <point x="456" y="230" type="line"/>
      <point x="1168" y="1336" type="line"/>
      <point x="1168" y="1454" type="line"/>
      <point x="156" y="1454" type="line" name="hr00"/>
      <point x="156" y="1252" type="line"/>
      <point x="788" y="1252" type="line"/>
      <point x="836" y="1258" type="line"/>
      <point x="804" y="1224" type="line"/>
      <point x="94" y="118" type="line"/>
    </contour>
  </outline>
</glyph>
<glyph name="bracketleft" format="2">
  <advance width="894"/>
  <unicode hex="005B"/>
  <outline>
    <contour>
      <point x="244" y="-398" type="line"/>
      <point x="850" y="-398" type="line"/>
      <point x="850" y="-190" type="line"/>
      <point x="508" y="-190" type="line"/>
      <point x="508" y="1334" type="line"/>
      <point x="850" y="1334" type="line"/>
      <point x="850" y="1542" type="line"/>
      <point x="244" y="1542" type="line" name="hr00"/>
    </contour>
  </outline>
</glyph>
<glyph name="backslash" format="2">
  <advance width="664"/>
  <unicode hex="005C"/>
  <outline>
    <contour>
      <point x="460" y="-124" type="line" name="hr00"/>
      <point x="702" y="-124" type="line"/>
      <point x="216" y="1454" type="line"/>
      <point x="-26" y="1454" type="line"/>
    </contour>
  </outline>
</glyph>
<glyph name="bracketright" format="2">
  <advance width="894"/>
  <unicode hex="005D"/>
  <outline>
    <contour>
      <point x="80" y="-398" type="line"/>
      <point x="686" y="-398" type="line" name="hr00"/>
      <point x="686" y="1542" type="line"/>
      <point x="80" y="1542" type="line"/>
      <point x="80" y="1334" type="line"/>
      <point x="422" y="1334" type="line"/>
      <point x="422" y="-190" type="line"/>
      <point x="80" y="-190" type="line"/>
    </contour>
  </outline>
</glyph>
<glyph name="asciicircum" format="2">
  <advance width="1256"/>
  <unicode hex="005E"/>
  <outline>
    <contour>
      <point x="108" y="420" type="line"/>
      <point x="366" y="420" type="line" name="hr00"/>
      <point x="618" y="1086" type="line"/>
      <point x="632" y="1148" type="line"/>
      <point x="646" y="1086" type="line"/>
      <point x="900" y="420" type="line"/>
      <point x="1154" y="420" type="line"/>
      <point x="732" y="1454" type="line"/>
      <point x="530" y="1454" type="line"/>
    </contour>
  </outline>
</glyph>
<glyph name="a" format="2">
  <advance width="1084"/>
  <unicode hex="0061"/>
  <anchor x="558" y="0" name="bottom"/>
  <anchor x="1002" y="0" name="ogonek"/>
  <anchor x="562" y="1034" name="top"/>
  <outline>
    <contour>
      <point x="390" y="-26" type="curve" smooth="yes" name="hr01"/>
      <point x="492" y="-26"/>
      <point x="572" y="-4"/>
      <point x="692" y="106" type="curve"/>
      <point x="716" y="140" type="line"/>
      <point x="722" y="100" type="line"/>
      <point x="738" y="60"/>
      <point x="760" y="20"/>
      <point x="796" y="0" type="curve"/>
      <point x="1002" y="0" type="line" name="hr02"/>
      <point x="978" y="94"/>
      <point x="970" y="178"/>
      <point x="970" y="252" type="curve" smooth="yes"/>
      <point x="970" y="622" type="line" smooth="yes"/>
      <point x="970" y="902"/>
      <point x="810" y="1056"/>
      <point x="526" y="1056" type="curve" smooth="yes"/>
      <point x="432" y="1056"/>
      <point x="296" y="1034"/>
      <point x="178" y="980" type="curve"/>
      <point x="246" y="804" type="line"/>
      <point x="340" y="838"/>
      <point x="414" y="850"/>
      <point x="480" y="850" type="curve" smooth="yes"/>
      <point x="620" y="850"/>
      <point x="700" y="760"/>
      <point x="700" y="622" type="curve" smooth="yes"/>
      <point x="700" y="320" type="line"/>
      <point x="630" y="238"/>
      <point x="550" y="180"/>
      <point x="474" y="180" type="curve" smooth="yes"/>
      <point x="404" y="180"/>
      <point x="348" y="232"/>
      <point x="348" y="302" type="curve" smooth="yes"/>
      <point x="348" y="368"/>
      <point x="392" y="424"/>
      <point x="492" y="440" type="curve" smooth="yes"/>
      <point x="576" y="456"/>
      <point x="614" y="532"/>
      <point x="628" y="626" type="curve"/>
      <point x="206" y="594"/>
      <point x="80" y="442"/>
      <point x="80" y="276" type="curve" smooth="yes"/>
      <point x="80" y="118"/>
      <point x="198" y="-26"/>
    </contour>
  </outline>
</glyph>
<glyph name="b" format="2">
  <advance width="1220"/>
  <unicode hex="0062"/>
  <anchor x="608" y="0" name="bottom"/>
  <anchor x="286" y="1516" name="top"/>
  <outline>
    <contour>
      <point x="586" y="-30" type="curve" smooth="yes"/>
      <point x="924" y="-30"/>
      <point x="1136" y="228"/>
      <point x="1136" y="554" type="curve" smooth="yes"/>
      <point x="1136" y="794"/>
      <point x="978" y="1052"/>
      <point x="724" y="1052" type="curve" smooth="yes"/>
      <point x="656" y="1052"/>
      <point x="572" y="1036"/>
      <point x="496" y="1004" type="curve"/>
      <point x="536" y="922"/>
      <point x="572" y="846"/>
      <point x="660" y="850" type="curve" smooth="yes" name="hr00"/>
      <point x="794" y="856"/>
      <point x="838" y="682"/>
      <point x="838" y="554" type="curve" smooth="yes"/>
      <point x="838" y="334"/>
      <point x="742" y="176"/>
      <point x="586" y="176" type="curve" smooth="yes"/>
      <point x="532" y="176"/>
      <point x="486" y="180"/>
      <point x="424" y="196" type="curve"/>
      <point x="424" y="1516" type="line"/>
      <point x="146" y="1516" type="line"/>
      <point x="146" y="84" type="line"/>
      <point x="308" y="0"/>
      <point x="440" y="-30"/>
    </contour>
  </outline>
</glyph>
<glyph name="c" format="2">
  <advance width="860"/>
  <unicode hex="0063"/>
  <anchor x="518" y="0" name="bottom"/>
  <anchor x="522" y="1034" name="top"/>
  <outline>
    <contour>
      <point x="592" y="-26" type="curve" smooth="yes"/>
      <point x="664" y="-26"/>
      <point x="758" y="-4"/>
      <point x="862" y="44" type="curve"/>
      <point x="794" y="228" type="line"/>
      <point x="708" y="194"/>
      <point x="648" y="180"/>
      <point x="592" y="180" type="curve" smooth="yes"/>
      <point x="448" y="180"/>
      <point x="352" y="308"/>
      <point x="352" y="518" type="curve" smooth="yes"/>
      <point x="352" y="726"/>
      <point x="448" y="854"/>
      <point x="592" y="854" type="curve" smooth="yes"/>
      <point x="636" y="854"/>
      <point x="702" y="846"/>
      <point x="766" y="830" type="curve"/>
      <point x="834" y="1016" type="line"/>
      <point x="754" y="1046"/>
      <point x="664" y="1060"/>
      <point x="592" y="1060" type="curve" smooth="yes" name="hr00"/>
      <point x="314" y="1060"/>
      <point x="56" y="880"/>
      <point x="56" y="518" type="curve" smooth="yes"/>
      <point x="56" y="134"/>
      <point x="314" y="-26"/>
    </contour>
  </outline>
</glyph>
<glyph name="d" format="2">
  <advance width="1238"/>
  <unicode hex="0064"/>
  <anchor x="618" y="0" name="bottom"/>
  <anchor x="832" y="1270" name="center"/>
  <anchor x="944" y="1516" name="top"/>
  <anchor x="1222" y="1516" name="topright"/>
  <outline>
    <contour>
      <point x="522" y="-26" type="curve"/>
      <point x="600" y="-26"/>
      <point x="680" y="2"/>
      <point x="784" y="96" type="curve"/>
      <point x="818" y="140" type="line"/>
      <point x="828" y="94" type="line"/>
      <point x="842" y="56"/>
      <point x="864" y="18"/>
      <point x="898" y="0" type="curve"/>
      <point x="1112" y="0" type="line" name="hr01"/>
      <point x="1090" y="94"/>
      <point x="1082" y="178"/>
      <point x="1082" y="252" type="curve"/>
      <point x="1082" y="1516" type="line"/>
      <point x="804" y="1516" type="line"/>
      <point x="804" y="320" type="line"/>
      <point x="720" y="224"/>
      <point x="648" y="180"/>
      <point x="572" y="180" type="curve"/>
      <point x="438" y="180"/>
      <point x="360" y="338"/>
      <point x="360" y="524" type="curve"/>
      <point x="360" y="712"/>
      <point x="418" y="846"/>
      <point x="582" y="856" type="curve" smooth="yes"/>
      <point x="648" y="862"/>
      <point x="696" y="924"/>
      <point x="732" y="1016" type="curve"/>
      <point x="628" y="1046"/>
      <point x="572" y="1052"/>
      <point x="504" y="1052" type="curve" smooth="yes"/>
      <point x="274" y="1052"/>
      <point x="64" y="806"/>
      <point x="64" y="524" type="curve"/>
      <point x="64" y="208"/>
      <point x="232" y="-26"/>
    </contour>
  </outline>
</glyph>
<glyph name="e" format="2">
  <advance width="1128"/>
  <unicode hex="0065"/>
  <anchor x="592" y="0" name="bottom"/>
  <anchor x="852" y="0" name="ogonek"/>
  <anchor x="592" y="1034" name="top"/>
  <outline>
    <contour>
      <point x="618" y="-26" type="curve" smooth="yes"/>
      <point x="742" y="-26"/>
      <point x="866" y="0"/>
      <point x="1010" y="68" type="curve"/>
      <point x="940" y="254" type="line"/>
      <point x="824" y="202"/>
      <point x="740" y="180"/>
      <point x="648" y="180" type="curve" smooth="yes"/>
      <point x="480" y="180"/>
      <point x="366" y="314"/>
      <point x="366" y="544" type="curve" smooth="yes"/>
      <point x="366" y="772"/>
      <point x="490" y="866"/>
      <point x="600" y="866" type="curve" smooth="yes"/>
      <point x="722" y="866"/>
      <point x="792" y="756"/>
      <point x="776" y="634" type="curve" name="hr00"/>
      <point x="598" y="634" type="line"/>
      <point x="530" y="634"/>
      <point x="470" y="562"/>
      <point x="442" y="470" type="curve"/>
      <point x="1002" y="470" type="line"/>
      <point x="1120" y="814"/>
      <point x="910" y="1060"/>
      <point x="614" y="1060" type="curve" smooth="yes"/>
      <point x="324" y="1060"/>
      <point x="90" y="864"/>
      <point x="90" y="534" type="curve" smooth="yes"/>
      <point x="90" y="264"/>
      <point x="252" y="-26"/>
    </contour>
  </outline>
</glyph>
<glyph name="f" format="2">
  <advance width="874"/>
  <unicode hex="0066"/>
  <anchor x="342" y="0" name="bottom"/>
  <anchor x="630" y="1516" name="top"/>
  <outline>
    <contour>
      <point x="210" y="0" type="line"/>
      <point x="474" y="0" type="line"/>
      <point x="474" y="1090" type="line" smooth="yes"/>
      <point x="474" y="1228"/>
      <point x="548" y="1320"/>
      <point x="678" y="1320" type="curve" smooth="yes"/>
      <point x="724" y="1320"/>
      <point x="774" y="1310"/>
      <point x="852" y="1288" type="curve"/>
      <point x="914" y="1466" type="line"/>
      <point x="810" y="1512"/>
      <point x="714" y="1526"/>
      <point x="648" y="1526" type="curve" smooth="yes"/>
      <point x="380" y="1526"/>
      <point x="210" y="1352"/>
      <point x="210" y="1090" type="curve" smooth="yes"/>
      <point x="210" y="1034" type="line" name="hr02"/>
      <point x="44" y="994" type="line"/>
      <point x="44" y="836" type="line" name="hr01"/>
      <point x="210" y="836" type="line"/>
    </contour>
    <contour>
      <point x="542" y="836" type="curve"/>
      <point x="830" y="836" type="line"/>
      <point x="830" y="1034" type="line"/>
      <point x="742" y="1034" type="line"/>
      <point x="626" y="1034"/>
      <point x="568" y="924"/>
    </contour>
  </outline>
</glyph>
<glyph name="g" format="2">
  <advance width="1182"/>
  <unicode hex="0067"/>
  <anchor x="588" y="-482" name="bottom"/>
  <anchor x="614" y="1034" name="top"/>
  <outline>
    <contour>
      <point x="528" y="-500" type="curve" smooth="yes"/>
      <point x="820" y="-500"/>
      <point x="1058" y="-366"/>
      <point x="1058" y="0" type="curve"/>
      <point x="1058" y="998" type="line"/>
      <point x="860" y="1048"/>
      <point x="760" y="1058"/>
      <point x="646" y="1058" type="curve" smooth="yes"/>
      <point x="290" y="1058"/>
      <point x="82" y="798"/>
      <point x="82" y="480" type="curve"/>
      <point x="82" y="242"/>
      <point x="232" y="-18"/>
      <point x="488" y="-18" type="curve" smooth="yes"/>
      <point x="556" y="-18"/>
      <point x="640" y="12"/>
      <point x="714" y="52" type="curve"/>
      <point x="670" y="128"/>
      <point x="632" y="192"/>
      <point x="552" y="190" type="curve" smooth="yes"/>
      <point x="416" y="186"/>
      <point x="380" y="352"/>
      <point x="380" y="480" type="curve" name="hr00"/>
      <point x="380" y="700"/>
      <point x="476" y="852"/>
      <point x="658" y="852" type="curve" smooth="yes"/>
      <point x="686" y="852"/>
      <point x="734" y="848"/>
      <point x="786" y="836" type="curve"/>
      <point x="786" y="-22" type="line"/>
      <point x="786" y="-206"/>
      <point x="660" y="-300"/>
      <point x="512" y="-300" type="curve" smooth="yes"/>
      <point x="428" y="-300"/>
      <point x="336" y="-284"/>
      <point x="202" y="-230" type="curve"/>
      <point x="132" y="-416" type="line"/>
      <point x="288" y="-484"/>
      <point x="424" y="-500"/>
    </contour>
  </outline>
</glyph>
<glyph name="h" format="2">
  <advance width="1216"/>
  <unicode hex="0068"/>
  <anchor x="608" y="0" name="bottom"/>
  <anchor x="418" y="1270" name="center"/>
  <anchor x="286" y="1516" name="top"/>
  <outline>
    <contour>
      <point x="146" y="0" type="line" name="hr00"/>
      <point x="424" y="0" type="line"/>
      <point x="424" y="1516" type="line"/>
      <point x="146" y="1516" type="line"/>
    </contour>
    <contour>
      <point x="792" y="0" type="line"/>
      <point x="1070" y="0" type="line"/>
      <point x="1070" y="738" type="line" smooth="yes"/>
      <point x="1070" y="956"/>
      <point x="930" y="1060"/>
      <point x="792" y="1060" type="curve" smooth="yes"/>
      <point x="718" y="1060"/>
      <point x="626" y="1046"/>
      <point x="496" y="972" type="curve"/>
      <point x="534" y="900"/>
      <point x="576" y="834"/>
      <point x="636" y="838" type="curve" smooth="yes"/>
      <point x="670" y="840"/>
      <point x="680" y="848"/>
      <point x="704" y="848" type="curve" smooth="yes"/>
      <point x="764" y="848"/>
      <point x="792" y="800"/>
      <point x="792" y="734" type="curve"/>
    </contour>
  </outline>
</glyph>
<glyph name="j" format="2">
  <advance width="590"/>
  <unicode hex="006A"/>
  <outline>
    <contour>
      <point x="48" y="-498" type="line"/>
      <point x="356" y="-294"/>
      <point x="444" y="-156"/>
      <point x="444" y="96" type="curve"/>
      <point x="444" y="1034" type="line"/>
      <point x="166" y="1034" type="line"/>
      <point x="166" y="96" type="line" smooth="yes"/>
      <point x="166" y="-100"/>
      <point x="128" y="-182"/>
      <point x="-70" y="-352" type="curve"/>
    </contour>
    <contour>
      <point x="306" y="1170" type="curve" smooth="yes"/>
      <point x="400" y="1170"/>
      <point x="472" y="1242"/>
      <point x="472" y="1334" type="curve" smooth="yes"/>
      <point x="472" y="1428"/>
      <point x="400" y="1502"/>
      <point x="306" y="1502" type="curve" smooth="yes"/>
      <point x="214" y="1502"/>
      <point x="142" y="1428"/>
      <point x="142" y="1334" type="curve" smooth="yes" name="hr01"/>
      <point x="142" y="1242"/>
      <point x="214" y="1170"/>
    </contour>
  </outline>
</glyph>
<glyph name="k" format="2">
  <advance width="1248"/>
  <unicode hex="006B"/>
  <anchor x="654" y="0" name="bottom"/>
  <anchor x="286" y="1516" name="top"/>
  <outline>
    <contour>
      <point x="904" y="0" type="line"/>
      <point x="1212" y="0" type="line"/>
      <point x="814" y="676" type="line"/>
      <point x="1150" y="1034" type="line"/>
      <point x="828" y="1034" type="line"/>
      <point x="648" y="816" type="line" smooth="yes"/>
      <point x="552" y="698"/>
      <point x="488" y="544"/>
      <point x="518" y="360" type="curve"/>
      <point x="626" y="474" type="line"/>
      <point x="654" y="514" type="line"/>
      <point x="668" y="466" type="line"/>
    </contour>
    <contour>
      <point x="146" y="0" type="line"/>
      <point x="424" y="0" type="line" name="hr00"/>
      <point x="424" y="1516" type="line"/>
      <point x="146" y="1516" type="line"/>
    </contour>
  </outline>
</glyph>
<glyph name="l" format="2">
  <advance width="564"/>
  <unicode hex="006C"/>
  <anchor x="290" y="0" name="bottom"/>
  <anchor x="290" y="900" name="center"/>
  <anchor x="290" y="1516" name="top"/>
  <anchor x="546" y="1516" name="topright"/>
  <outline>
    <contour>
      <point x="150" y="0" type="line"/>
      <point x="428" y="0" type="line" name="hr00"/>
      <point x="428" y="1516" type="line"/>
      <point x="150" y="1516" type="line"/>
    </contour>
  </outline>
</glyph>
<glyph name="m" format="2">
  <advance width="1860"/>
  <unicode hex="006D"/>
  <anchor x="928" y="0" name="bottom"/>
  <anchor x="928" y="1034" name="top"/>
  <outline>
    <contour>
      <point x="1426" y="0" type="line"/>
      <point x="1704" y="0" type="line"/>
      <point x="1704" y="738" type="line" smooth="yes"/>
      <point x="1704" y="956"/>
      <point x="1558" y="1060"/>
      <point x="1420" y="1060" type="curve" smooth="yes"/>
      <point x="1326" y="1060"/>
      <point x="1234" y="1034"/>
      <point x="1088" y="974" type="curve"/>
      <point x="1124" y="902"/>
      <point x="1176" y="832"/>
      <point x="1240" y="836" type="curve" smooth="yes"/>
      <point x="1274" y="838"/>
      <point x="1302" y="848"/>
      <point x="1326" y="848" type="curve" smooth="yes"/>
      <point x="1400" y="848"/>
      <point x="1426" y="800"/>
      <point x="1426" y="734" type="curve"/>
    </contour>
    <contour>
      <point x="150" y="0" type="line"/>
      <point x="430" y="0" type="line"/>
      <point x="430" y="814" type="line" smooth="yes"/>
      <point x="430" y="894"/>
      <point x="416" y="962"/>
      <point x="352" y="1034" type="curve"/>
      <point x="120" y="1034" type="line"/>
      <point x="142" y="940"/>
      <point x="150" y="856"/>
      <point x="150" y="782" type="curve" smooth="yes"/>
    </contour>
    <contour>
      <point x="788" y="0" type="line"/>
      <point x="1068" y="0" type="line"/>
      <point x="1068" y="738" type="line" smooth="yes"/>
      <point x="1068" y="956"/>
      <point x="936" y="1060"/>
      <point x="798" y="1060" type="curve" smooth="yes"/>
      <point x="704" y="1060"/>
      <point x="618" y="1034"/>
      <point x="474" y="976" type="curve"/>
      <point x="510" y="904"/>
      <point x="558" y="834"/>
      <point x="622" y="838" type="curve" smooth="yes" name="hr01"/>
      <point x="654" y="840"/>
      <point x="676" y="848"/>
      <point x="700" y="848" type="curve" smooth="yes"/>
      <point x="768" y="848"/>
      <point x="788" y="800"/>
      <point x="788" y="734" type="curve"/>
    </contour>
  </outline>
</glyph>
<glyph name="n" format="2">
  <advance width="1156"/>
  <unicode hex="006E"/>
  <anchor x="570" y="0" name="bottom"/>
  <anchor x="568" y="1034" name="top"/>
  <outline>
    <contour>
      <point x="752" y="0" type="line"/>
      <point x="1030" y="0" type="line"/>
      <point x="1030" y="738" type="line" smooth="yes"/>
      <point x="1030" y="956"/>
      <point x="890" y="1060"/>
      <point x="752" y="1060" type="curve" smooth="yes"/>
      <point x="660" y="1060"/>
      <point x="566" y="1038"/>
      <point x="434" y="968" type="curve"/>
      <point x="472" y="904"/>
      <point x="512" y="832"/>
      <point x="576" y="836" type="curve" name="hr01"/>
      <point x="614" y="838"/>
      <point x="634" y="848"/>
      <point x="660" y="848" type="curve" smooth="yes"/>
      <point x="728" y="848"/>
      <point x="752" y="800"/>
      <point x="752" y="734" type="curve"/>
    </contour>
    <contour>
      <point x="106" y="0" type="line"/>
      <point x="386" y="0" type="line"/>
      <point x="386" y="814" type="line" smooth="yes"/>
      <point x="386" y="894"/>
      <point x="370" y="962"/>
      <point x="306" y="1034" type="curve"/>
      <point x="74" y="1034" type="line"/>
      <point x="96" y="940"/>
      <point x="106" y="856"/>
      <point x="106" y="782" type="curve" smooth="yes"/>
    </contour>
  </outline>
</glyph>
<glyph name="o" format="2">
  <advance width="1220"/>
  <unicode hex="006F"/>
  <anchor x="604" y="0" name="bottom"/>
  <anchor x="604" y="518" name="center"/>
  <anchor x="1098" y="0" name="ogonek"/>
  <anchor x="604" y="1034" name="top"/>
  <anchor x="1180" y="1034" name="topright"/>
  <outline>
    <contour>
      <point x="604" y="-26" type="curve"/>
      <point x="868" y="-26"/>
      <point x="1140" y="178"/>
      <point x="1140" y="518" type="curve" name="hr00"/>
      <point x="1140" y="836"/>
      <point x="922" y="1060"/>
      <point x="604" y="1060" type="curve"/>
      <point x="374" y="1060"/>
      <point x="68" y="894"/>
      <point x="68" y="518" type="curve" smooth="yes"/>
      <point x="68" y="170"/>
      <point x="322" y="-26"/>
    </contour>
    <contour>
      <point x="604" y="178" type="curve"/>
      <point x="458" y="178"/>
      <point x="364" y="318"/>
      <point x="364" y="518" type="curve" smooth="yes"/>
      <point x="364" y="704"/>
      <point x="448" y="856"/>
      <point x="604" y="856" type="curve" smooth="yes"/>
      <point x="760" y="856"/>
      <point x="842" y="704"/>
      <point x="842" y="518" type="curve" smooth="yes"/>
      <point x="842" y="330"/>
      <point x="760" y="178"/>
    </contour>
  </outline>
</glyph>
<glyph name="p" format="2">
  <advance width="1242"/>
  <unicode hex="0070"/>
  <anchor x="286" y="-482" name="bottom"/>
  <anchor x="682" y="1034" name="top"/>
  <outline>
    <contour>
      <point x="146" y="-482" type="line"/>
      <point x="424" y="-482" type="line"/>
      <point x="424" y="714" type="line"/>
      <point x="506" y="810"/>
      <point x="578" y="854"/>
      <point x="656" y="854" type="curve"/>
      <point x="788" y="854"/>
      <point x="868" y="696"/>
      <point x="868" y="510" type="curve"/>
      <point x="868" y="322"/>
      <point x="810" y="188"/>
      <point x="644" y="178" type="curve" smooth="yes"/>
      <point x="578" y="174"/>
      <point x="532" y="110"/>
      <point x="496" y="18" type="curve"/>
      <point x="600" y="-12"/>
      <point x="656" y="-18"/>
      <point x="724" y="-18" type="curve" smooth="yes"/>
      <point x="954" y="-18"/>
      <point x="1164" y="228"/>
      <point x="1164" y="510" type="curve"/>
      <point x="1164" y="826"/>
      <point x="994" y="1060"/>
      <point x="706" y="1060" type="curve"/>
      <point x="626" y="1060"/>
      <point x="546" y="1030"/>
      <point x="440" y="932" type="curve"/>
      <point x="410" y="892" type="line"/>
      <point x="404" y="932" type="line"/>
      <point x="388" y="972"/>
      <point x="364" y="1014"/>
      <point x="330" y="1034" type="curve"/>
      <point x="116" y="1034" type="line" name="hr01"/>
      <point x="138" y="940"/>
      <point x="146" y="856"/>
      <point x="146" y="782" type="curve"/>
    </contour>
  </outline>
</glyph>
<glyph name="q" format="2">
  <advance width="1210"/>
  <unicode hex="0071"/>
  <anchor x="934" y="-482" name="bottom"/>
  <anchor x="636" y="1034" name="top"/>
  <outline>
    <contour>
      <point x="798" y="-482" type="line"/>
      <point x="1070" y="-482" type="line"/>
      <point x="1070" y="998" type="line"/>
      <point x="870" y="1048"/>
      <point x="770" y="1058"/>
      <point x="658" y="1058" type="curve" smooth="yes"/>
      <point x="300" y="1058"/>
      <point x="92" y="798"/>
      <point x="92" y="480" type="curve" smooth="yes"/>
      <point x="92" y="242"/>
      <point x="244" y="-18"/>
      <point x="498" y="-18" type="curve" smooth="yes"/>
      <point x="566" y="-18"/>
      <point x="650" y="12"/>
      <point x="726" y="52" type="curve"/>
      <point x="680" y="128"/>
      <point x="642" y="192"/>
      <point x="562" y="190" type="curve" smooth="yes" name="hr00"/>
      <point x="426" y="186"/>
      <point x="390" y="352"/>
      <point x="390" y="480" type="curve" smooth="yes"/>
      <point x="390" y="700"/>
      <point x="486" y="852"/>
      <point x="668" y="852" type="curve" smooth="yes"/>
      <point x="696" y="852"/>
      <point x="744" y="848"/>
      <point x="798" y="836" type="curve"/>
    </contour>
  </outline>
</glyph>
<glyph name="r" format="2">
  <advance width="782"/>
  <unicode hex="0072"/>
  <anchor x="264" y="0" name="bottom"/>
  <anchor x="430" y="1034" name="top"/>
  <outline>
    <contour>
      <point x="132" y="0" type="line"/>
      <point x="394" y="0" type="line"/>
      <point x="394" y="482" type="line" smooth="yes"/>
      <point x="394" y="680"/>
      <point x="476" y="824"/>
      <point x="612" y="824" type="curve" smooth="yes"/>
      <point x="644" y="824"/>
      <point x="676" y="820"/>
      <point x="730" y="804" type="curve"/>
      <point x="762" y="1030" type="line"/>
      <point x="714" y="1046"/>
      <point x="674" y="1054"/>
      <point x="632" y="1054" type="curve" smooth="yes" name="hr01"/>
      <point x="546" y="1054"/>
      <point x="452" y="992"/>
      <point x="398" y="886" type="curve"/>
      <point x="378" y="838" type="line"/>
      <point x="374" y="886" type="line"/>
      <point x="364" y="954"/>
      <point x="334" y="1016"/>
      <point x="312" y="1034" type="curve"/>
      <point x="100" y="1034" type="line" name="hr02"/>
      <point x="124" y="940"/>
      <point x="132" y="856"/>
      <point x="132" y="782" type="curve" smooth="yes"/>
    </contour>
  </outline>
</glyph>
<glyph name="s" format="2">
  <advance width="872"/>
  <unicode hex="0073"/>
  <anchor x="436" y="0" name="bottom"/>
  <anchor x="448" y="1034" name="top"/>
  <outline>
    <contour>
      <point x="472" y="-20" type="curve" smooth="yes"/>
      <point x="658" y="-20"/>
      <point x="832" y="102"/>
      <point x="832" y="296" type="curve" smooth="yes"/>
      <point x="832" y="606"/>
      <point x="348" y="596"/>
      <point x="348" y="766" type="curve" smooth="yes"/>
      <point x="348" y="822"/>
      <point x="396" y="854"/>
      <point x="472" y="854" type="curve" smooth="yes"/>
      <point x="540" y="854"/>
      <point x="592" y="848"/>
      <point x="696" y="820" type="curve"/>
      <point x="760" y="1000" type="line"/>
      <point x="632" y="1042"/>
      <point x="544" y="1052"/>
      <point x="454" y="1052" type="curve" smooth="yes"/>
      <point x="180" y="1052"/>
      <point x="84" y="882"/>
      <point x="84" y="754" type="curve" smooth="yes"/>
      <point x="84" y="438"/>
      <point x="568" y="464"/>
      <point x="568" y="286" type="curve" smooth="yes"/>
      <point x="568" y="236"/>
      <point x="524" y="186"/>
      <point x="426" y="186" type="curve" smooth="yes"/>
      <point x="342" y="186"/>
      <point x="248" y="202"/>
      <point x="124" y="250" type="curve" name="hr00"/>
      <point x="60" y="64" type="line"/>
      <point x="238" y="-10"/>
      <point x="368" y="-20"/>
    </contour>
  </outline>
</glyph>
<glyph name="t" format="2">
  <advance width="910"/>
  <unicode hex="0074"/>
  <anchor x="530" y="0" name="bottom"/>
  <anchor x="448" y="552" name="center"/>
  <anchor x="340" y="1280" name="top"/>
  <anchor x="854" y="1280" name="topright"/>
  <outline>
    <contour>
      <point x="600" y="-26" type="curve" smooth="yes"/>
      <point x="666" y="-26"/>
      <point x="740" y="-6"/>
      <point x="840" y="28" type="curve"/>
      <point x="782" y="210" type="line"/>
      <point x="714" y="186"/>
      <point x="666" y="180"/>
      <point x="628" y="180" type="curve" smooth="yes"/>
      <point x="534" y="180"/>
      <point x="472" y="260"/>
      <point x="472" y="396" type="curve" smooth="yes"/>
      <point x="472" y="1366" type="line"/>
      <point x="208" y="1280" type="line"/>
      <point x="208" y="1034" type="line" name="hr02"/>
      <point x="42" y="994" type="line"/>
      <point x="42" y="836" type="line" name="hr01"/>
      <point x="208" y="836" type="line"/>
      <point x="208" y="396" type="line"/>
      <point x="208" y="124"/>
      <point x="346" y="-26"/>
    </contour>
    <contour>
      <point x="740" y="836" type="curve"/>
      <point x="830" y="836" type="line"/>
      <point x="830" y="1034" type="line"/>
      <point x="540" y="1034" type="line"/>
      <point x="566" y="946"/>
      <point x="624" y="836"/>
    </contour>
  </outline>
</glyph>
<glyph name="u" format="2">
  <advance width="1226"/>
  <unicode hex="0075"/>
  <anchor x="608" y="0" name="bottom"/>
  <anchor x="1104" y="20" name="ogonek"/>
  <anchor x="604" y="1034" name="top"/>
  <anchor x="1186" y="1034" name="topright"/>
  <outline>
    <contour>
      <point x="410" y="-26" type="curve" smooth="yes"/>
      <point x="502" y="-26"/>
      <point x="596" y="-4"/>
      <point x="728" y="66" type="curve"/>
      <point x="690" y="130"/>
      <point x="648" y="202"/>
      <point x="586" y="198" type="curve" name="hr01"/>
      <point x="548" y="196"/>
      <point x="528" y="186"/>
      <point x="502" y="186" type="curve" smooth="yes"/>
      <point x="434" y="186"/>
      <point x="410" y="234"/>
      <point x="410" y="300" type="curve" smooth="yes"/>
      <point x="410" y="1034" type="line"/>
      <point x="132" y="1034" type="line"/>
      <point x="132" y="296" type="line" smooth="yes"/>
      <point x="132" y="78"/>
      <point x="272" y="-26"/>
    </contour>
    <contour>
      <point x="854" y="0" type="curve"/>
      <point x="1088" y="0" type="line"/>
      <point x="1066" y="94"/>
      <point x="1056" y="178"/>
      <point x="1056" y="252" type="curve" smooth="yes"/>
      <point x="1056" y="1034" type="line"/>
      <point x="776" y="1034" type="line"/>
      <point x="776" y="220" type="line" smooth="yes"/>
      <point x="776" y="140"/>
      <point x="792" y="72"/>
    </contour>
  </outline>
</glyph>
<glyph name="v" format="2">
  <advance width="1094"/>
  <unicode hex="0076"/>
  <anchor x="550" y="0" name="bottom"/>
  <anchor x="552" y="1034" name="top"/>
  <outline>
    <contour>
      <point x="400" y="0" type="line" name="hr00"/>
      <point x="698" y="0" type="line"/>
      <point x="1086" y="1034" type="line"/>
      <point x="796" y="1034" type="line"/>
      <point x="566" y="302" type="line"/>
      <point x="552" y="242" type="line"/>
      <point x="538" y="302" type="line"/>
      <point x="306" y="1034" type="line"/>
      <point x="12" y="1034" type="line"/>
    </contour>
  </outline>
</glyph>
<glyph name="w" format="2">
  <advance width="1744"/>
  <unicode hex="0077"/>
  <anchor x="882" y="0" name="bottom"/>
  <anchor x="866" y="1034" name="top"/>
  <outline>
    <contour>
      <point x="1068" y="0" type="line" name="hr00"/>
      <point x="1366" y="0" type="line"/>
      <point x="1730" y="1034" type="line"/>
      <point x="1440" y="1034" type="line"/>
      <point x="1234" y="302" type="line"/>
      <point x="1220" y="242" type="line"/>
      <point x="1206" y="302" type="line"/>
      <point x="998" y="1034" type="line"/>
      <point x="702" y="1034" type="line"/>
    </contour>
    <contour>
      <point x="404" y="0" type="line"/>
      <point x="696" y="0" type="line"/>
      <point x="770" y="174" type="line"/>
      <point x="842" y="346"/>
      <point x="782" y="578"/>
      <point x="718" y="694" type="curve"/>
      <point x="570" y="302" type="line"/>
      <point x="556" y="242" type="line"/>
      <point x="542" y="302" type="line"/>
      <point x="334" y="1034" type="line"/>
      <point x="40" y="1034" type="line"/>
    </contour>
  </outline>
</glyph>
<glyph name="x" format="2">
  <advance width="1028"/>
  <unicode hex="0078"/>
  <anchor x="500" y="0" name="bottom"/>
  <anchor x="512" y="1034" name="top"/>
  <outline>
    <contour>
      <point x="694" y="0" type="curve"/>
      <point x="1006" y="0" type="line"/>
      <point x="644" y="512" type="line"/>
      <point x="986" y="1034" type="line"/>
      <point x="682" y="1034" type="line"/>
      <point x="524" y="744" type="line"/>
      <point x="508" y="702" type="line"/>
      <point x="496" y="744" type="line"/>
      <point x="340" y="1034" type="line"/>
      <point x="22" y="1034" type="line" name="hr00"/>
      <point x="372" y="500" type="line"/>
      <point x="482" y="334"/>
      <point x="592" y="166"/>
    </contour>
    <contour>
      <point x="4" y="0" type="line"/>
      <point x="306" y="0" type="line"/>
      <point x="380" y="136" type="line"/>
      <point x="436" y="250"/>
      <point x="364" y="376"/>
      <point x="312" y="440" type="curve"/>
    </contour>
  </outline>
</glyph>
<glyph name="y" format="2">
  <advance width="1200"/>
  <unicode hex="0079"/>
  <anchor x="962" y="0" name="bottom"/>
  <anchor x="574" y="1034" name="top"/>
  <outline>
    <contour>
      <point x="254" y="-496" type="curve"/>
      <point x="528" y="-496"/>
      <point x="604" y="-322"/>
      <point x="738" y="22" type="curve"/>
      <point x="1104" y="1034" type="line"/>
      <point x="818" y="1034" type="line"/>
      <point x="522" y="74" type="line"/>
      <point x="444" y="-164"/>
      <point x="394" y="-292"/>
      <point x="254" y="-292" type="curve" name="hr00"/>
      <point x="216" y="-292"/>
      <point x="182" y="-290"/>
      <point x="136" y="-278" type="curve"/>
      <point x="72" y="-458" type="line"/>
      <point x="136" y="-486"/>
      <point x="200" y="-494"/>
    </contour>
    <contour>
      <point x="402" y="26" type="line"/>
      <point x="470" y="140"/>
      <point x="524" y="388"/>
      <point x="470" y="562" type="curve"/>
      <point x="330" y="1034" type="line"/>
      <point x="30" y="1034" type="line"/>
    </contour>
  </outline>
</glyph>
<glyph name="z" format="2">
  <advance width="948"/>
  <unicode hex="007A"/>
  <anchor x="476" y="0" name="bottom"/>
  <anchor x="476" y="1034" name="top"/>
  <outline>
    <contour>
      <point x="60" y="0" type="line"/>
      <point x="870" y="0" type="line"/>
      <point x="870" y="196" type="line"/>
      <point x="426" y="196" type="line"/>
      <point x="382" y="190" type="line"/>
      <point x="412" y="224" type="line"/>
      <point x="866" y="916" type="line"/>
      <point x="866" y="1034" type="line"/>
      <point x="114" y="1034" type="line" name="hr00"/>
      <point x="114" y="842" type="line"/>
      <point x="506" y="842" type="line"/>
      <point x="548" y="848" type="line"/>
      <point x="518" y="814" type="line"/>
      <point x="60" y="118" type="line"/>
    </contour>
  </outline>
</glyph>
<glyph name="braceleft" format="2">
  <advance width="806"/>
  <unicode hex="007B"/>
  <outline>
    <contour>
      <point x="678" y="-352" type="curve"/>
      <point x="810" y="-220" type="line"/>
      <point x="640" y="-70"/>
      <point x="584" y="70"/>
      <point x="568" y="336" type="curve"/>
      <point x="560" y="446"/>
      <point x="502" y="530"/>
      <point x="416" y="586" type="curve"/>
      <point x="370" y="606" type="line"/>
      <point x="418" y="628" type="line"/>
      <point x="502" y="684"/>
      <point x="560" y="768"/>
      <point x="568" y="878" type="curve"/>
      <point x="586" y="1126"/>
      <point x="642" y="1254"/>
      <point x="810" y="1404" type="curve"/>
      <point x="678" y="1534" type="line"/>
      <point x="434" y="1370"/>
      <point x="348" y="1186"/>
      <point x="324" y="850" type="curve" name="hr00"/>
      <point x="316" y="756"/>
      <point x="228" y="702"/>
      <point x="126" y="684" type="curve"/>
      <point x="126" y="540" type="line"/>
      <point x="228" y="522"/>
      <point x="312" y="468"/>
      <point x="320" y="374" type="curve"/>
      <point x="342" y="14"/>
      <point x="426" y="-182"/>
    </contour>
  </outline>
</glyph>
<glyph name="braceright" format="2">
  <advance width="856"/>
  <unicode hex="007D"/>
  <outline>
    <contour>
      <point x="284" y="-352" type="line"/>
      <point x="536" y="-182"/>
      <point x="620" y="14"/>
      <point x="642" y="374" type="curve"/>
      <point x="650" y="468"/>
      <point x="734" y="522"/>
      <point x="836" y="540" type="curve"/>
      <point x="836" y="684" type="line"/>
      <point x="734" y="702"/>
      <point x="646" y="756"/>
      <point x="638" y="850" type="curve" name="hr00"/>
      <point x="614" y="1186"/>
      <point x="528" y="1370"/>
      <point x="284" y="1534" type="curve"/>
      <point x="152" y="1404" type="line"/>
      <point x="320" y="1254"/>
      <point x="376" y="1126"/>
      <point x="394" y="878" type="curve"/>
      <point x="402" y="768"/>
      <point x="458" y="684"/>
      <point x="542" y="628" type="curve"/>
      <point x="594" y="606" type="line"/>
      <point x="544" y="584" type="line"/>
      <point x="460" y="528"/>
      <point x="402" y="446"/>
      <point x="394" y="336" type="curve"/>
      <point x="378" y="70"/>
      <point x="322" y="-70"/>
      <point x="152" y="-220" type="curve"/>
    </contour>
  </outline>
</glyph>
<glyph name="asciitilde" format="2">
  <advance width="1228"/>
  <unicode hex="007E"/>
  <outline>
    <contour>
      <point x="362" y="456" type="line"/>
      <point x="372" y="548"/>
      <point x="428" y="578"/>
      <point x="472" y="578" type="curve" smooth="yes" name="hr02"/>
      <point x="514" y="578"/>
      <point x="548" y="554"/>
      <point x="588" y="526" type="curve" smooth="yes"/>
      <point x="646" y="484"/>
      <point x="716" y="434"/>
      <point x="842" y="434" type="curve" smooth="yes"/>
      <point x="962" y="434"/>
      <point x="1126" y="526"/>
      <point x="1138" y="754" type="curve"/>
      <point x="908" y="770" type="line"/>
      <point x="898" y="698"/>
      <point x="864" y="648"/>
      <point x="810" y="648" type="curve" smooth="yes" name="hr01"/>
      <point x="770" y="648"/>
      <point x="732" y="672"/>
      <point x="686" y="702" type="curve" smooth="yes"/>
      <point x="622" y="744"/>
      <point x="546" y="792"/>
      <point x="438" y="792" type="curve"/>
      <point x="286" y="790"/>
      <point x="132" y="676"/>
      <point x="126" y="472" type="curve"/>
    </contour>
  </outline>
</glyph>
<glyph name="exclamdown" format="2">
  <advance width="702"/>
  <unicode hex="00A1"/>
  <outline>
    <contour>
      <point x="94" y="-420" type="line"/>
      <point x="374" y="-420" type="line"/>
      <point x="332" y="574" type="line"/>
      <point x="132" y="574" type="line"/>
    </contour>
    <contour>
      <point x="230" y="730" type="curve" smooth="yes"/>
      <point x="322" y="730"/>
      <point x="394" y="806"/>
      <point x="394" y="898" type="curve" smooth="yes"/>
      <point x="394" y="990"/>
      <point x="322" y="1062"/>
      <point x="230" y="1062" type="curve" smooth="yes"/>
      <point x="136" y="1062"/>
      <point x="64" y="990"/>
      <point x="64" y="898" type="curve" name="hr01"/>
      <point x="64" y="806"/>
      <point x="136" y="730"/>
    </contour>
  </outline>
</glyph>
<glyph name="cent" format="2">
  <advance width="854"/>
  <unicode hex="00A2"/>
  <outline>
    <contour>
      <point x="458" y="-28" type="line"/>
      <point x="654" y="-28" type="line"/>
      <point x="654" y="170" type="line"/>
      <point x="714" y="180"/>
      <point x="786" y="200"/>
      <point x="862" y="236" type="curve"/>
      <point x="794" y="420" type="line"/>
      <point x="708" y="386"/>
      <point x="648" y="372"/>
      <point x="592" y="372" type="curve" smooth="yes"/>
      <point x="448" y="372"/>
      <point x="352" y="500"/>
      <point x="352" y="710" type="curve" smooth="yes"/>
      <point x="352" y="918"/>
      <point x="448" y="1046"/>
      <point x="592" y="1046" type="curve" smooth="yes"/>
      <point x="636" y="1046"/>
      <point x="702" y="1038"/>
      <point x="766" y="1022" type="curve"/>
      <point x="834" y="1208" type="line"/>
      <point x="776" y="1230"/>
      <point x="712" y="1242"/>
      <point x="654" y="1248" type="curve" name="hr00"/>
      <point x="654" y="1432" type="line"/>
      <point x="458" y="1432" type="line"/>
      <point x="458" y="1236" type="line"/>
      <point x="236" y="1188"/>
      <point x="56" y="1012"/>
      <point x="56" y="710" type="curve" smooth="yes"/>
      <point x="56" y="388"/>
      <point x="236" y="224"/>
      <point x="458" y="178" type="curve"/>
    </contour>
  </outline>
</glyph>
<glyph name="sterling" format="2">
  <advance width="1026"/>
  <unicode hex="00A3"/>
  <outline>
    <contour>
      <point x="68" y="0" type="line"/>
      <point x="966" y="0" type="line"/>
      <point x="966" y="224" type="line"/>
      <point x="506" y="224" type="line"/>
      <point x="462" y="220" type="line"/>
      <point x="498" y="260" type="line"/>
      <point x="528" y="304"/>
      <point x="546" y="336"/>
      <point x="558" y="394" type="curve"/>
      <point x="598" y="592"/>
      <point x="524" y="780"/>
      <point x="524" y="1022" type="curve" smooth="yes"/>
      <point x="524" y="1150"/>
      <point x="600" y="1216"/>
      <point x="730" y="1216" type="curve" smooth="yes"/>
      <point x="786" y="1216"/>
      <point x="880" y="1202"/>
      <point x="980" y="1160" type="curve"/>
      <point x="1050" y="1350" type="line"/>
      <point x="926" y="1406"/>
      <point x="824" y="1424"/>
      <point x="730" y="1424" type="curve"/>
      <point x="454" y="1424"/>
      <point x="258" y="1294"/>
      <point x="258" y="1024" type="curve" smooth="yes" name="hr02"/>
      <point x="258" y="940"/>
      <point x="266" y="866"/>
      <point x="276" y="804" type="curve"/>
      <point x="110" y="804" type="line"/>
      <point x="110" y="610" type="line" name="hr01"/>
      <point x="308" y="610" type="line"/>
      <point x="312" y="560"/>
      <point x="314" y="524"/>
      <point x="314" y="484" type="curve" smooth="yes"/>
      <point x="314" y="338"/>
      <point x="212" y="224"/>
      <point x="68" y="152" type="curve"/>
    </contour>
    <contour>
      <point x="804" y="610" type="curve"/>
      <point x="936" y="610" type="line"/>
      <point x="936" y="804" type="line"/>
      <point x="614" y="804" type="line"/>
      <point x="642" y="718"/>
      <point x="684" y="610"/>
    </contour>
  </outline>
</glyph>
<glyph name="currency" format="2">
  <advance width="1026"/>
  <unicode hex="00A4"/>
  <outline>
    <contour>
      <point x="150" y="198" type="line"/>
      <point x="298" y="340" type="line"/>
      <point x="350" y="302"/>
      <point x="424" y="272"/>
      <point x="512" y="272" type="curve" smooth="yes"/>
      <point x="606" y="272"/>
      <point x="686" y="304"/>
      <point x="732" y="342" type="curve"/>
      <point x="886" y="200" type="line"/>
      <point x="986" y="306" type="line"/>
      <point x="828" y="452" type="line"/>
      <point x="860" y="498"/>
      <point x="888" y="586"/>
      <point x="888" y="682" type="curve"/>
      <point x="888" y="778"/>
      <point x="860" y="862"/>
      <point x="828" y="908" type="curve"/>
      <point x="986" y="1054" type="line"/>
      <point x="886" y="1160" type="line"/>
      <point x="732" y="1018" type="line"/>
      <point x="686" y="1056"/>
      <point x="606" y="1088"/>
      <point x="512" y="1088" type="curve" smooth="yes"/>
      <point x="424" y="1088"/>
      <point x="350" y="1058"/>
      <point x="298" y="1020" type="curve"/>
      <point x="150" y="1162" type="line"/>
      <point x="42" y="1050" type="line"/>
      <point x="198" y="908" type="line"/>
      <point x="164" y="862"/>
      <point x="130" y="782"/>
      <point x="130" y="682" type="curve"/>
      <point x="130" y="578"/>
      <point x="164" y="498"/>
      <point x="198" y="452" type="curve"/>
      <point x="42" y="310" type="line"/>
    </contour>
    <contour>
      <point x="510" y="420" type="curve" smooth="yes"/>
      <point x="402" y="420"/>
      <point x="304" y="524"/>
      <point x="304" y="680" type="curve"/>
      <point x="304" y="836"/>
      <point x="402" y="940"/>
      <point x="510" y="940" type="curve"/>
      <point x="624" y="940"/>
      <point x="716" y="818"/>
      <point x="716" y="680" type="curve" name="hr00"/>
      <point x="716" y="542"/>
      <point x="624" y="420"/>
    </contour>
  </outline>
</glyph>
<glyph name="yen" format="2">
  <advance width="1320"/>
  <unicode hex="00A5"/>
  <outline>
    <contour>
      <point x="510" y="0" type="line"/>
      <point x="786" y="0" type="line"/>
      <point x="786" y="256" type="line"/>
      <point x="1072" y="256" type="line"/>
      <point x="1072" y="390" type="line"/>
      <point x="786" y="390" type="line"/>
      <point x="786" y="504" type="line"/>
      <point x="1072" y="504" type="line"/>
      <point x="1072" y="638" type="line"/>
      <point x="786" y="638" type="line"/>
      <point x="786" y="678" type="line" name="hr00"/>
      <point x="320" y="1454" type="line"/>
      <point x="8" y="1454" type="line"/>
      <point x="510" y="644" type="line"/>
      <point x="510" y="638" type="line"/>
      <point x="222" y="638" type="line"/>
      <point x="222" y="504" type="line"/>
      <point x="510" y="504" type="line"/>
      <point x="510" y="390" type="line"/>
      <point x="222" y="390" type="line"/>
      <point x="222" y="256" type="line"/>
      <point x="510" y="256" type="line"/>
    </contour>
    <contour>
      <point x="846" y="754" type="curve"/>
      <point x="1270" y="1454" type="line"/>
      <point x="962" y="1454" type="line"/>
      <point x="774" y="1114" type="line"/>
      <point x="706" y="986"/>
      <point x="794" y="822"/>
    </contour>
  </outline>
</glyph>
<glyph name="brokenbar" format="2">
  <advance width="508"/>
  <unicode hex="00A6"/>
  <outline>
    <contour>
      <point x="136" y="-586" type="line"/>
      <point x="388" y="-586" type="line"/>
      <point x="388" y="282" type="line"/>
      <point x="136" y="282" type="line"/>
    </contour>
    <contour>
      <point x="136" y="774" type="line" name="hr00"/>
      <point x="388" y="774" type="line"/>
      <point x="388" y="1622" type="line"/>
      <point x="136" y="1622" type="line"/>
    </contour>
  </outline>
</glyph>
<glyph name="section" format="2">
  <advance width="1000"/>
  <unicode hex="00A7"/>
  <outline>
    <contour>
      <point x="504" y="-102" type="curve" smooth="yes"/>
      <point x="734" y="-102"/>
      <point x="926" y="14"/>
      <point x="926" y="188" type="curve" smooth="yes"/>
      <point x="926" y="284"/>
      <point x="880" y="352"/>
      <point x="816" y="406" type="curve"/>
      <point x="776" y="428" type="line"/>
      <point x="822" y="448" type="line"/>
      <point x="896" y="496"/>
      <point x="944" y="566"/>
      <point x="944" y="650" type="curve" smooth="yes"/>
      <point x="944" y="996"/>
      <point x="344" y="956"/>
      <point x="344" y="1172" type="curve" smooth="yes"/>
      <point x="344" y="1228"/>
      <point x="410" y="1258"/>
      <point x="524" y="1258" type="curve" smooth="yes"/>
      <point x="590" y="1258"/>
      <point x="660" y="1248"/>
      <point x="762" y="1220" type="curve"/>
      <point x="832" y="1388" type="line"/>
      <point x="698" y="1428"/>
      <point x="590" y="1440"/>
      <point x="500" y="1440" type="curve" smooth="yes"/>
      <point x="270" y="1440"/>
      <point x="104" y="1322"/>
      <point x="104" y="1170" type="curve" smooth="yes"/>
      <point x="104" y="1070"/>
      <point x="152" y="1000"/>
      <point x="224" y="946" type="curve"/>
      <point x="264" y="926" type="line"/>
      <point x="222" y="908" type="line"/>
      <point x="144" y="856"/>
      <point x="86" y="780"/>
      <point x="86" y="704" type="curve" smooth="yes"/>
      <point x="86" y="358"/>
      <point x="686" y="402"/>
      <point x="686" y="186" type="curve" smooth="yes"/>
      <point x="686" y="110"/>
      <point x="594" y="80"/>
      <point x="480" y="80" type="curve" smooth="yes"/>
      <point x="382" y="80"/>
      <point x="262" y="104"/>
      <point x="144" y="150" type="curve"/>
      <point x="74" y="-18" type="line"/>
      <point x="220" y="-86"/>
      <point x="414" y="-102"/>
    </contour>
    <contour>
      <point x="626" y="512" type="curve"/>
      <point x="472" y="576"/>
      <point x="318" y="618"/>
      <point x="318" y="714" type="curve" smooth="yes"/>
      <point x="318" y="768"/>
      <point x="348" y="802"/>
      <point x="416" y="844" type="curve"/>
      <point x="564" y="784"/>
      <point x="712" y="744"/>
      <point x="712" y="660" type="curve" smooth="yes" name="hr01"/>
      <point x="712" y="608"/>
      <point x="686" y="558"/>
    </contour>
  </outline>
</glyph>
<glyph name="copyright" format="2">
  <advance width="1440"/>
  <unicode hex="00A9"/>
  <outline>
    <contour>
      <point x="714" y="42" type="curve" smooth="yes"/>
      <point x="1098" y="42"/>
      <point x="1378" y="352"/>
      <point x="1378" y="714" type="curve" smooth="yes"/>
      <point x="1378" y="1100"/>
      <point x="1108" y="1380"/>
      <point x="714" y="1380" type="curve" name="hr00"/>
      <point x="326" y="1380"/>
      <point x="44" y="1070"/>
      <point x="44" y="714" type="curve" smooth="yes"/>
      <point x="44" y="322"/>
      <point x="316" y="42"/>
    </contour>
    <contour>
      <point x="754" y="352" type="curve"/>
      <point x="796" y="352"/>
      <point x="864" y="362"/>
      <point x="938" y="398" type="curve"/>
      <point x="896" y="518" type="line"/>
      <point x="834" y="490"/>
      <point x="792" y="484"/>
      <point x="754" y="484" type="curve"/>
      <point x="652" y="484"/>
      <point x="584" y="584"/>
      <point x="584" y="714" type="curve"/>
      <point x="584" y="842"/>
      <point x="654" y="940"/>
      <point x="754" y="940" type="curve"/>
      <point x="794" y="940"/>
      <point x="828" y="934"/>
      <point x="876" y="918" type="curve"/>
      <point x="920" y="1046" type="line"/>
      <point x="864" y="1064"/>
      <point x="804" y="1074"/>
      <point x="754" y="1074" type="curve"/>
      <point x="564" y="1074"/>
      <point x="408" y="946"/>
      <point x="408" y="714" type="curve"/>
      <point x="408" y="480"/>
      <point x="560" y="352"/>
    </contour>
    <contour>
      <point x="714" y="198" type="curve"/>
      <point x="442" y="198"/>
      <point x="228" y="394"/>
      <point x="228" y="708" type="curve" smooth="yes"/>
      <point x="228" y="1026"/>
      <point x="442" y="1226"/>
      <point x="714" y="1226" type="curve"/>
      <point x="980" y="1226"/>
      <point x="1194" y="1026"/>
      <point x="1194" y="714" type="curve" smooth="yes"/>
      <point x="1194" y="394"/>
      <point x="980" y="198"/>
    </contour>
  </outline>
</glyph>
<glyph name="ordfeminine" format="2">
  <advance width="1054"/>
  <unicode hex="00AA"/>
  <outline>
    <contour>
      <point x="302" y="590" type="curve" smooth="yes"/>
      <point x="384" y="590"/>
      <point x="456" y="622"/>
      <point x="506" y="676" type="curve"/>
      <point x="522" y="700" type="line"/>
      <point x="524" y="676" type="line"/>
      <point x="536" y="646"/>
      <point x="548" y="624"/>
      <point x="570" y="604" type="curve"/>
      <point x="710" y="604" type="line"/>
      <point x="698" y="654"/>
      <point x="688" y="732"/>
      <point x="688" y="844" type="curve" name="hr00"/>
      <point x="688" y="1044" type="line"/>
      <point x="688" y="1232"/>
      <point x="580" y="1342"/>
      <point x="370" y="1342" type="curve" smooth="yes"/>
      <point x="308" y="1342"/>
      <point x="230" y="1334"/>
      <point x="140" y="1294" type="curve"/>
      <point x="180" y="1176" type="line"/>
      <point x="238" y="1198"/>
      <point x="294" y="1206"/>
      <point x="344" y="1206" type="curve" smooth="yes"/>
      <point x="440" y="1206"/>
      <point x="510" y="1164"/>
      <point x="510" y="1054" type="curve"/>
      <point x="510" y="802" type="line"/>
      <point x="462" y="742"/>
      <point x="402" y="716"/>
      <point x="340" y="716" type="curve" smooth="yes"/>
      <point x="288" y="716"/>
      <point x="254" y="752"/>
      <point x="254" y="798" type="curve" smooth="yes"/>
      <point x="254" y="846"/>
      <point x="282" y="882"/>
      <point x="360" y="896" type="curve" smooth="yes"/>
      <point x="434" y="910"/>
      <point x="454" y="996"/>
      <point x="460" y="1028" type="curve"/>
      <point x="172" y="996"/>
      <point x="70" y="920"/>
      <point x="70" y="788" type="curve" smooth="yes"/>
      <point x="70" y="662"/>
      <point x="172" y="590"/>
    </contour>
  </outline>
</glyph>
<glyph name="logicalnot" format="2">
  <advance width="1182"/>
  <unicode hex="00AC"/>
  <outline>
    <contour>
      <point x="878" y="312" type="line"/>
      <point x="1092" y="312" type="line"/>
      <point x="1092" y="910" type="line" name="hr00"/>
      <point x="86" y="910" type="line"/>
      <point x="86" y="714" type="line"/>
      <point x="878" y="714" type="line"/>
    </contour>
  </outline>
</glyph>
<glyph name="registered" format="2">
  <advance width="1440"/>
  <unicode hex="00AE"/>
  <outline>
    <contour>
      <point x="714" y="42" type="curve" smooth="yes"/>
      <point x="1098" y="42"/>
      <point x="1378" y="352"/>
      <point x="1378" y="714" type="curve" smooth="yes"/>
      <point x="1378" y="1100"/>
      <point x="1108" y="1380"/>
      <point x="714" y="1380" type="curve" smooth="yes" name="hr00"/>
      <point x="326" y="1380"/>
      <point x="44" y="1070"/>
      <point x="44" y="714" type="curve" smooth="yes"/>
      <point x="44" y="322"/>
      <point x="316" y="42"/>
    </contour>
    <contour>
      <point x="714" y="198" type="curve" smooth="yes"/>
      <point x="442" y="198"/>
      <point x="228" y="394"/>
      <point x="228" y="708" type="curve" smooth="yes"/>
      <point x="228" y="1026"/>
      <point x="442" y="1226"/>
      <point x="714" y="1226" type="curve" smooth="yes"/>
      <point x="980" y="1226"/>
      <point x="1194" y="1026"/>
      <point x="1194" y="714" type="curve" smooth="yes"/>
      <point x="1194" y="394"/>
      <point x="980" y="198"/>
    </contour>
    <contour>
      <point x="482" y="378" type="line"/>
      <point x="646" y="378" type="line"/>
      <point x="646" y="938" type="line"/>
      <point x="682" y="942"/>
      <point x="684" y="944"/>
      <point x="708" y="944" type="curve" smooth="yes"/>
      <point x="788" y="944"/>
      <point x="826" y="914"/>
      <point x="826" y="862" type="curve" smooth="yes"/>
      <point x="826" y="816"/>
      <point x="810" y="782"/>
      <point x="764" y="770" type="curve" smooth="yes"/>
      <point x="706" y="756"/>
      <point x="682" y="702"/>
      <point x="672" y="650" type="curve"/>
      <point x="688" y="650"/>
      <point x="704" y="650"/>
      <point x="720" y="650" type="curve"/>
      <point x="818" y="612"/>
      <point x="796" y="486"/>
      <point x="846" y="378" type="curve"/>
      <point x="1018" y="378" type="line"/>
      <point x="964" y="496"/>
      <point x="968" y="606"/>
      <point x="894" y="666" type="curve"/>
      <point x="856" y="686" type="line"/>
      <point x="900" y="694" type="line"/>
      <point x="964" y="728"/>
      <point x="996" y="790"/>
      <point x="996" y="862" type="curve" smooth="yes"/>
      <point x="996" y="992"/>
      <point x="878" y="1072"/>
      <point x="708" y="1072" type="curve" smooth="yes"/>
      <point x="638" y="1072"/>
      <point x="558" y="1060"/>
      <point x="482" y="1042" type="curve"/>
    </contour>
  </outline>
</glyph>
<glyph name="degree" format="2">
  <advance width="674"/>
  <unicode hex="00B0"/>
  <outline>
    <contour>
      <point x="350" y="946" type="curve" smooth="yes"/>
      <point x="512" y="946"/>
      <point x="662" y="1072"/>
      <point x="662" y="1246" type="curve" smooth="yes"/>
      <point x="662" y="1430"/>
      <point x="512" y="1546"/>
      <point x="350" y="1546" type="curve" smooth="yes"/>
      <point x="188" y="1546"/>
      <point x="38" y="1420"/>
      <point x="38" y="1246" type="curve" smooth="yes"/>
      <point x="38" y="1062"/>
      <point x="188" y="946"/>
    </contour>
    <contour>
      <point x="350" y="1092" type="curve" smooth="yes"/>
      <point x="272" y="1092"/>
      <point x="208" y="1146"/>
      <point x="208" y="1246" type="curve" smooth="yes" name="hr00"/>
      <point x="208" y="1346"/>
      <point x="272" y="1402"/>
      <point x="350" y="1402" type="curve" smooth="yes"/>
      <point x="428" y="1402"/>
      <point x="494" y="1346"/>
      <point x="494" y="1246" type="curve" smooth="yes"/>
      <point x="494" y="1146"/>
      <point x="428" y="1092"/>
    </contour>
  </outline>
</glyph>
<glyph name="plusminus" format="2">
  <advance width="1136"/>
  <unicode hex="00B1"/>
  <outline>
    <contour>
      <point x="454" y="284" type="line"/>
      <point x="666" y="284" type="line"/>
      <point x="666" y="574" type="line"/>
      <point x="1030" y="574" type="line"/>
      <point x="1030" y="766" type="line"/>
      <point x="666" y="766" type="line"/>
      <point x="666" y="1052" type="line"/>
      <point x="454" y="1052" type="line"/>
      <point x="454" y="766" type="line"/>
      <point x="94" y="766" type="line" name="hr00"/>
      <point x="94" y="574" type="line"/>
      <point x="454" y="574" type="line"/>
    </contour>
    <contour>
      <point x="94" y="0" type="line"/>
      <point x="1030" y="0" type="line"/>
      <point x="1030" y="196" type="line"/>
      <point x="94" y="196" type="line"/>
    </contour>
  </outline>
</glyph>
<glyph name="twosuperior" format="2">
  <advance width="804"/>
  <unicode hex="00B2"/>
  <outline>
    <contour>
      <point x="138" y="620" type="line"/>
      <point x="668" y="620" type="line"/>
      <point x="668" y="768" type="line"/>
      <point x="382" y="768" type="line"/>
      <point x="356" y="764" type="line"/>
      <point x="374" y="784" type="line"/>
      <point x="480" y="940"/>
      <point x="674" y="1064"/>
      <point x="674" y="1256" type="curve" smooth="yes" name="hr00"/>
      <point x="674" y="1394"/>
      <point x="558" y="1472"/>
      <point x="402" y="1472" type="curve" smooth="yes"/>
      <point x="338" y="1472"/>
      <point x="252" y="1460"/>
      <point x="180" y="1422" type="curve"/>
      <point x="236" y="1304" type="line"/>
      <point x="278" y="1322"/>
      <point x="324" y="1334"/>
      <point x="370" y="1334" type="curve"/>
      <point x="448" y="1334"/>
      <point x="496" y="1300"/>
      <point x="496" y="1242" type="curve"/>
      <point x="496" y="1094"/>
      <point x="278" y="956"/>
      <point x="138" y="710" type="curve"/>
    </contour>
  </outline>
</glyph>
<glyph name="threesuperior" format="2">
  <advance width="762"/>
  <unicode hex="00B3"/>
  <outline>
    <contour>
      <point x="316" y="602" type="curve" smooth="yes"/>
      <point x="500" y="602"/>
      <point x="642" y="700"/>
      <point x="642" y="860" type="curve" smooth="yes" name="hr01"/>
      <point x="642" y="980"/>
      <point x="552" y="1058"/>
      <point x="460" y="1080" type="curve"/>
      <point x="552" y="1122"/>
      <point x="614" y="1192"/>
      <point x="614" y="1276" type="curve" smooth="yes"/>
      <point x="614" y="1410"/>
      <point x="498" y="1470"/>
      <point x="352" y="1470" type="curve" smooth="yes"/>
      <point x="286" y="1470"/>
      <point x="218" y="1458"/>
      <point x="142" y="1420" type="curve"/>
      <point x="192" y="1302" type="line"/>
      <point x="246" y="1320"/>
      <point x="294" y="1330"/>
      <point x="340" y="1330" type="curve" smooth="yes"/>
      <point x="398" y="1330"/>
      <point x="434" y="1294"/>
      <point x="434" y="1262" type="curve" name="hr02"/>
      <point x="434" y="1200"/>
      <point x="386" y="1166"/>
      <point x="314" y="1136" type="curve" smooth="yes"/>
      <point x="250" y="1110" type="line"/>
      <point x="264" y="998" type="line"/>
      <point x="400" y="998"/>
      <point x="462" y="950"/>
      <point x="462" y="866" type="curve" smooth="yes"/>
      <point x="462" y="796"/>
      <point x="404" y="742"/>
      <point x="314" y="742" type="curve" smooth="yes"/>
      <point x="260" y="742"/>
      <point x="202" y="760"/>
      <point x="154" y="780" type="curve"/>
      <point x="110" y="658" type="line"/>
      <point x="150" y="634"/>
      <point x="234" y="602"/>
    </contour>
  </outline>
</glyph>
<glyph name="micro" format="2">
  <advance width="1106"/>
  <unicode hex="00B5"/>
  <outline>
    <contour>
      <point x="112" y="-422" type="line"/>
      <point x="356" y="-422" type="line"/>
      <point x="356" y="14" type="line"/>
      <point x="354" y="62" type="line"/>
      <point x="382" y="28" type="line"/>
      <point x="424" y="-4"/>
      <point x="486" y="-20"/>
      <point x="530" y="-20" type="curve" smooth="yes"/>
      <point x="648" y="-20"/>
      <point x="722" y="22"/>
      <point x="780" y="104" type="curve"/>
      <point x="798" y="142" type="line"/>
      <point x="808" y="106" type="line"/>
      <point x="848" y="20"/>
      <point x="938" y="-16"/>
      <point x="1006" y="-16" type="curve" smooth="yes"/>
      <point x="1036" y="-16"/>
      <point x="1106" y="-8"/>
      <point x="1150" y="10" type="curve"/>
      <point x="1126" y="180" type="line"/>
      <point x="1044" y="176"/>
      <point x="1016" y="216"/>
      <point x="1016" y="328" type="curve" smooth="yes"/>
      <point x="1016" y="1034" type="line"/>
      <point x="758" y="1034" type="line"/>
      <point x="758" y="398" type="line" smooth="yes"/>
      <point x="758" y="270"/>
      <point x="672" y="176"/>
      <point x="548" y="176" type="curve" smooth="yes" name="hr01"/>
      <point x="442" y="176"/>
      <point x="368" y="262"/>
      <point x="368" y="420" type="curve" smooth="yes"/>
      <point x="368" y="1034" type="line"/>
      <point x="112" y="1034" type="line"/>
    </contour>
  </outline>
</glyph>
<glyph name="paragraph" format="2">
  <advance width="1218"/>
  <unicode hex="00B6"/>
  <outline>
    <contour>
      <point x="650" y="-60" type="line"/>
      <point x="796" y="-60" type="line"/>
      <point x="796" y="1332" type="line"/>
      <point x="844" y="1330"/>
      <point x="896" y="1326"/>
      <point x="956" y="1316" type="curve"/>
      <point x="956" y="-60" type="line"/>
      <point x="1102" y="-60" type="line"/>
      <point x="1102" y="1440" type="line"/>
      <point x="952" y="1470"/>
      <point x="852" y="1480"/>
      <point x="706" y="1480" type="curve" smooth="yes"/>
      <point x="384" y="1480"/>
      <point x="208" y="1272"/>
      <point x="208" y="1040" type="curve" smooth="yes"/>
      <point x="208" y="794"/>
      <point x="406" y="630"/>
      <point x="646" y="610" type="curve"/>
      <point x="646" y="610"/>
      <point x="648" y="608"/>
      <point x="650" y="608" type="curve" name="hr00"/>
    </contour>
  </outline>
</glyph>
<glyph name="onesuperior" format="2">
  <advance width="638"/>
  <unicode hex="00B9"/>
  <outline>
    <contour>
      <point x="334" y="618" type="line" name="hr00"/>
      <point x="532" y="618" type="line"/>
      <point x="532" y="1454" type="line"/>
      <point x="436" y="1454" type="line"/>
      <point x="152" y="1302" type="line"/>
      <point x="222" y="1174" type="line"/>
      <point x="334" y="1228" type="line"/>
    </contour>
  </outline>
</glyph>
<glyph name="ordmasculine" format="2">
  <advance width="860"/>
  <unicode hex="00BA"/>
  <outline>
    <contour>
      <point x="428" y="588" type="curve" smooth="yes"/>
      <point x="672" y="588"/>
      <point x="786" y="766"/>
      <point x="786" y="966" type="curve" smooth="yes"/>
      <point x="786" y="1184"/>
      <point x="664" y="1342"/>
      <point x="428" y="1342" type="curve" name="hr00"/>
      <point x="196" y="1342"/>
      <point x="70" y="1174"/>
      <point x="70" y="966" type="curve" smooth="yes"/>
      <point x="70" y="724"/>
      <point x="210" y="588"/>
    </contour>
    <contour>
      <point x="428" y="728" type="curve"/>
      <point x="306" y="728"/>
      <point x="256" y="838"/>
      <point x="256" y="966" type="curve" smooth="yes"/>
      <point x="256" y="1104"/>
      <point x="320" y="1204"/>
      <point x="428" y="1204" type="curve" smooth="yes"/>
      <point x="542" y="1204"/>
      <point x="602" y="1106"/>
      <point x="602" y="966" type="curve" smooth="yes"/>
      <point x="602" y="828"/>
      <point x="544" y="728"/>
    </contour>
  </outline>
</glyph>
<glyph name="onequarter" format="2">
  <advance width="1396"/>
  <unicode hex="00BC"/>
  <outline>
    <contour>
      <point x="132" y="0" type="line"/>
      <point x="348" y="0" type="line"/>
      <point x="1220" y="1454" type="line"/>
      <point x="1004" y="1454" type="line"/>
    </contour>
    <contour>
      <point x="214" y="618" type="line"/>
      <point x="412" y="618" type="line"/>
      <point x="412" y="1454" type="line"/>
      <point x="316" y="1454" type="line"/>
      <point x="32" y="1302" type="line"/>
      <point x="102" y="1174" type="line"/>
      <point x="214" y="1228" type="line"/>
    </contour>
    <contour>
      <point x="1068" y="0" type="line"/>
      <point x="1236" y="0" type="line"/>
      <point x="1236" y="164" type="line" name="hr02"/>
      <point x="1332" y="164" type="line"/>
      <point x="1332" y="302" type="line" name="hr01"/>
      <point x="1236" y="302" type="line"/>
      <point x="1236" y="846" type="line"/>
      <point x="1050" y="846" type="line"/>
      <point x="676" y="286" type="line"/>
      <point x="676" y="164" type="line"/>
      <point x="1018" y="164" type="line"/>
      <point x="998" y="224"/>
      <point x="964" y="302"/>
      <point x="900" y="302" type="curve"/>
      <point x="880" y="302" type="line"/>
      <point x="860" y="302" type="line"/>
      <point x="872" y="320" type="line"/>
      <point x="1034" y="558" type="line"/>
      <point x="1068" y="608" type="line"/>
      <point x="1068" y="558" type="line"/>
    </contour>
  </outline>
</glyph>
<glyph name="onehalf" format="2">
  <advance width="1526"/>
  <unicode hex="00BD"/>
  <outline>
    <contour>
      <point x="132" y="0" type="line" name="hr00"/>
      <point x="348" y="0" type="line"/>
      <point x="1220" y="1454" type="line"/>
      <point x="1004" y="1454" type="line"/>
    </contour>
    <contour>
      <point x="214" y="618" type="line"/>
      <point x="412" y="618" type="line"/>
      <point x="412" y="1454" type="line"/>
      <point x="316" y="1454" type="line"/>
      <point x="32" y="1302" type="line"/>
      <point x="102" y="1174" type="line"/>
      <point x="214" y="1228" type="line"/>
    </contour>
    <contour>
      <point x="844" y="0" type="line"/>
      <point x="1374" y="0" type="line"/>
      <point x="1374" y="148" type="line"/>
      <point x="1096" y="148" type="line"/>
      <point x="1062" y="144" type="line"/>
      <point x="1082" y="168" type="line"/>
      <point x="1188" y="324"/>
      <point x="1380" y="444"/>
      <point x="1380" y="636" type="curve" smooth="yes"/>
      <point x="1380" y="774"/>
      <point x="1264" y="852"/>
      <point x="1108" y="852" type="curve" smooth="yes"/>
      <point x="1044" y="852"/>
      <point x="958" y="840"/>
      <point x="886" y="802" type="curve"/>
      <point x="942" y="684" type="line"/>
      <point x="984" y="702"/>
      <point x="1030" y="714"/>
      <point x="1076" y="714" type="curve" smooth="yes"/>
      <point x="1154" y="714"/>
      <point x="1202" y="680"/>
      <point x="1202" y="622" type="curve" smooth="yes"/>
      <point x="1202" y="474"/>
      <point x="984" y="336"/>
      <point x="844" y="90" type="curve"/>
    </contour>
  </outline>
</glyph>
<glyph name="threequarters" format="2">
  <advance width="1432"/>
  <unicode hex="00BE"/>
  <outline>
    <contour>
      <point x="204" y="0" type="line"/>
      <point x="420" y="0" type="line"/>
      <point x="1292" y="1454" type="line"/>
      <point x="1076" y="1454" type="line"/>
    </contour>
    <contour>
      <point x="256" y="602" type="curve" smooth="yes"/>
      <point x="440" y="602"/>
      <point x="582" y="700"/>
      <point x="582" y="860" type="curve" smooth="yes" name="hr03"/>
      <point x="582" y="980"/>
      <point x="492" y="1058"/>
      <point x="400" y="1080" type="curve"/>
      <point x="492" y="1122"/>
      <point x="554" y="1192"/>
      <point x="554" y="1276" type="curve" smooth="yes"/>
      <point x="554" y="1410"/>
      <point x="438" y="1470"/>
      <point x="292" y="1470" type="curve" smooth="yes"/>
      <point x="226" y="1470"/>
      <point x="158" y="1458"/>
      <point x="82" y="1420" type="curve"/>
      <point x="132" y="1302" type="line"/>
      <point x="186" y="1320"/>
      <point x="234" y="1330"/>
      <point x="280" y="1330" type="curve" smooth="yes"/>
      <point x="338" y="1330"/>
      <point x="374" y="1294"/>
      <point x="374" y="1262" type="curve" name="hr04"/>
      <point x="374" y="1200"/>
      <point x="326" y="1166"/>
      <point x="254" y="1136" type="curve" smooth="yes"/>
      <point x="190" y="1110" type="line"/>
      <point x="204" y="998" type="line"/>
      <point x="340" y="998"/>
      <point x="402" y="950"/>
      <point x="402" y="866" type="curve" smooth="yes"/>
      <point x="402" y="796"/>
      <point x="344" y="742"/>
      <point x="254" y="742" type="curve" smooth="yes"/>
      <point x="200" y="742"/>
      <point x="142" y="760"/>
      <point x="94" y="780" type="curve"/>
      <point x="50" y="658" type="line"/>
      <point x="90" y="634"/>
      <point x="174" y="602"/>
    </contour>
    <contour>
      <point x="1140" y="0" type="line"/>
      <point x="1308" y="0" type="line"/>
      <point x="1308" y="164" type="line" name="hr02"/>
      <point x="1404" y="164" type="line"/>
      <point x="1404" y="302" type="line" name="hr01"/>
      <point x="1308" y="302" type="line"/>
      <point x="1308" y="846" type="line"/>
      <point x="1122" y="846" type="line"/>
      <point x="748" y="286" type="line"/>
      <point x="748" y="164" type="line"/>
      <point x="1090" y="164" type="line"/>
      <point x="1070" y="224"/>
      <point x="1036" y="302"/>
      <point x="972" y="302" type="curve"/>
      <point x="932" y="302" type="line"/>
      <point x="1140" y="608" type="line"/>
    </contour>
  </outline>
</glyph>
<glyph name="questiondown" format="2">
  <advance width="1166"/>
  <unicode hex="00BF"/>
  <outline>
    <contour>
      <point x="630" y="-442" type="curve" smooth="yes"/>
      <point x="740" y="-442"/>
      <point x="842" y="-426"/>
      <point x="990" y="-360" type="curve"/>
      <point x="918" y="-172" type="line"/>
      <point x="790" y="-226"/>
      <point x="726" y="-234"/>
      <point x="650" y="-234" type="curve"/>
      <point x="536" y="-234"/>
      <point x="460" y="-176"/>
      <point x="460" y="-86" type="curve" smooth="yes"/>
      <point x="460" y="112"/>
      <point x="796" y="208"/>
      <point x="796" y="572" type="curve"/>
      <point x="560" y="572" type="line"/>
      <point x="560" y="308"/>
      <point x="174" y="166"/>
      <point x="174" y="-116" type="curve" smooth="yes"/>
      <point x="174" y="-324"/>
      <point x="364" y="-442"/>
    </contour>
    <contour>
      <point x="678" y="728" type="curve" smooth="yes"/>
      <point x="772" y="728"/>
      <point x="844" y="804"/>
      <point x="844" y="896" type="curve" smooth="yes" name="hr01"/>
      <point x="844" y="988"/>
      <point x="772" y="1060"/>
      <point x="678" y="1060" type="curve" smooth="yes"/>
      <point x="586" y="1060"/>
      <point x="514" y="988"/>
      <point x="514" y="896" type="curve" smooth="yes"/>
      <point x="514" y="804"/>
      <point x="586" y="728"/>
    </contour>
  </outline>
</glyph>
<glyph name="AE" format="2">
  <advance width="1950"/>
  <unicode hex="00C6"/>
  <anchor x="976" y="0" name="bottom"/>
  <anchor x="976" y="1454" name="top"/>
  <outline>
    <contour>
      <point x="0" y="0" type="line"/>
      <point x="282" y="0" type="line"/>
      <point x="436" y="318" type="line" name="hr00"/>
      <point x="892" y="318" type="line"/>
      <point x="864" y="406"/>
      <point x="808" y="524"/>
      <point x="692" y="524" type="curve" smooth="yes"/>
      <point x="558" y="524" type="line"/>
      <point x="518" y="520" type="line"/>
      <point x="548" y="560" type="line"/>
      <point x="812" y="1108" type="line"/>
      <point x="840" y="1178" type="line"/>
      <point x="846" y="1104" type="line"/>
      <point x="1012" y="0" type="line"/>
      <point x="1830" y="0" type="line"/>
      <point x="1830" y="206" type="line"/>
      <point x="1248" y="206" type="line"/>
      <point x="1092" y="1248" type="line"/>
      <point x="1688" y="1248" type="line"/>
      <point x="1688" y="1454" type="line"/>
      <point x="744" y="1454" type="line"/>
    </contour>
    <contour>
      <point x="1252" y="662" type="curve"/>
      <point x="1708" y="662" type="line"/>
      <point x="1708" y="864" type="line"/>
      <point x="1480" y="864" type="line" smooth="yes"/>
      <point x="1342" y="864"/>
      <point x="1282" y="760"/>
    </contour>
  </outline>
</glyph>
<glyph name="multiply" format="2">
  <advance width="1136"/>
  <unicode hex="00D7"/>
  <outline>
    <contour>
      <point x="228" y="128" type="line"/>
      <point x="562" y="460" type="line"/>
      <point x="894" y="128" type="line"/>
      <point x="1044" y="278" type="line"/>
      <point x="712" y="612" type="line"/>
      <point x="1040" y="942" type="line"/>
      <point x="890" y="1092" type="line"/>
      <point x="562" y="762" type="line"/>
      <point x="230" y="1092" type="line"/>
      <point x="78" y="942" type="line"/>
      <point x="410" y="612" type="line"/>
      <point x="78" y="278" type="line" name="hr00"/>
    </contour>
  </outline>
</glyph>
<glyph name="Thorn" format="2">
  <advance width="1218"/>
  <unicode hex="00DE"/>
  <anchor x="278" y="0" name="bottom"/>
  <anchor x="278" y="1454" name="top"/>
  <outline>
    <contour>
      <point x="142" y="0" type="line"/>
      <point x="414" y="0" type="line"/>
      <point x="414" y="976" type="line"/>
      <point x="486" y="984"/>
      <point x="510" y="988"/>
      <point x="582" y="988" type="curve" smooth="yes"/>
      <point x="748" y="988"/>
      <point x="860" y="876"/>
      <point x="860" y="728" type="curve" smooth="yes"/>
      <point x="860" y="588"/>
      <point x="770" y="480"/>
      <point x="660" y="470" type="curve" smooth="yes"/>
      <point x="570" y="462"/>
      <point x="518" y="364"/>
      <point x="488" y="288" type="curve"/>
      <point x="562" y="266"/>
      <point x="630" y="264"/>
      <point x="690" y="270" type="curve" smooth="yes"/>
      <point x="928" y="292"/>
      <point x="1154" y="452"/>
      <point x="1154" y="728" type="curve" smooth="yes" name="hr00"/>
      <point x="1154" y="1022"/>
      <point x="906" y="1194"/>
      <point x="582" y="1194" type="curve" smooth="yes"/>
      <point x="522" y="1194"/>
      <point x="470" y="1192"/>
      <point x="414" y="1188" type="curve"/>
      <point x="414" y="1454" type="line"/>
      <point x="142" y="1454" type="line"/>
    </contour>
  </outline>
</glyph>
<glyph name="germandbls" format="2">
  <advance width="1134"/>
  <unicode hex="00DF"/>
  <anchor x="612" y="0" name="bottom"/>
  <anchor x="588" y="1516" name="top"/>
  <outline>
    <contour>
      <point x="788" y="-24" type="curve" smooth="yes"/>
      <point x="958" y="-24"/>
      <point x="1126" y="86"/>
      <point x="1126" y="282" type="curve" smooth="yes"/>
      <point x="1126" y="612"/>
      <point x="778" y="628"/>
      <point x="778" y="802" type="curve" smooth="yes" name="hr02"/>
      <point x="778" y="870"/>
      <point x="824" y="916"/>
      <point x="914" y="952" type="curve"/>
      <point x="964" y="1032"/>
      <point x="990" y="1106"/>
      <point x="990" y="1176" type="curve" smooth="yes"/>
      <point x="990" y="1386"/>
      <point x="836" y="1526"/>
      <point x="588" y="1526" type="curve" smooth="yes"/>
      <point x="344" y="1526"/>
      <point x="136" y="1386"/>
      <point x="136" y="1088" type="curve" smooth="yes"/>
      <point x="136" y="-2" type="line"/>
      <point x="402" y="0" type="line"/>
      <point x="402" y="1110" type="line" smooth="yes"/>
      <point x="402" y="1246"/>
      <point x="486" y="1326"/>
      <point x="602" y="1326" type="curve" smooth="yes"/>
      <point x="704" y="1326"/>
      <point x="772" y="1262"/>
      <point x="772" y="1176" type="curve" smooth="yes" name="hr01"/>
      <point x="772" y="1146"/>
      <point x="772" y="1122"/>
      <point x="764" y="1092" type="curve"/>
      <point x="626" y="1038"/>
      <point x="534" y="918"/>
      <point x="534" y="802" type="curve" smooth="yes"/>
      <point x="534" y="486"/>
      <point x="882" y="458"/>
      <point x="882" y="288" type="curve" smooth="yes"/>
      <point x="882" y="226"/>
      <point x="828" y="184"/>
      <point x="756" y="184" type="curve" smooth="yes"/>
      <point x="716" y="184"/>
      <point x="652" y="194"/>
      <point x="568" y="230" type="curve"/>
      <point x="498" y="50" type="line"/>
      <point x="624" y="-14"/>
      <point x="708" y="-24"/>
    </contour>
  </outline>
</glyph>
<glyph name="ae" format="2">
  <advance width="1700"/>
  <unicode hex="00E6"/>
  <anchor x="820" y="0" name="bottom"/>
  <anchor x="850" y="1034" name="top"/>
  <outline>
    <contour>
      <point x="414" y="-26" type="curve" smooth="yes"/>
      <point x="548" y="-26"/>
      <point x="730" y="52"/>
      <point x="814" y="242" type="curve"/>
      <point x="858" y="114"/>
      <point x="1014" y="-26"/>
      <point x="1202" y="-26" type="curve" smooth="yes"/>
      <point x="1326" y="-26"/>
      <point x="1450" y="0"/>
      <point x="1594" y="68" type="curve"/>
      <point x="1524" y="254" type="line"/>
      <point x="1408" y="202"/>
      <point x="1324" y="180"/>
      <point x="1232" y="180" type="curve" smooth="yes"/>
      <point x="1064" y="180"/>
      <point x="950" y="314"/>
      <point x="950" y="544" type="curve" smooth="yes"/>
      <point x="950" y="772"/>
      <point x="1074" y="866"/>
      <point x="1184" y="866" type="curve" smooth="yes"/>
      <point x="1306" y="866"/>
      <point x="1376" y="756"/>
      <point x="1360" y="634" type="curve"/>
      <point x="1182" y="634" type="line"/>
      <point x="1114" y="634"/>
      <point x="1054" y="562"/>
      <point x="1026" y="470" type="curve"/>
      <point x="1586" y="470" type="line"/>
      <point x="1704" y="814"/>
      <point x="1494" y="1060"/>
      <point x="1198" y="1060" type="curve" smooth="yes" name="hr02"/>
      <point x="1060" y="1060"/>
      <point x="910" y="974"/>
      <point x="834" y="840" type="curve"/>
      <point x="758" y="982"/>
      <point x="626" y="1056"/>
      <point x="500" y="1056" type="curve" smooth="yes" name="hr01"/>
      <point x="406" y="1056"/>
      <point x="270" y="1034"/>
      <point x="152" y="980" type="curve"/>
      <point x="220" y="804" type="line"/>
      <point x="314" y="838"/>
      <point x="388" y="850"/>
      <point x="454" y="850" type="curve" smooth="yes"/>
      <point x="594" y="850"/>
      <point x="674" y="760"/>
      <point x="674" y="622" type="curve" smooth="yes"/>
      <point x="674" y="530" type="line"/>
      <point x="674" y="324"/>
      <point x="588" y="180"/>
      <point x="448" y="180" type="curve" smooth="yes"/>
      <point x="378" y="180"/>
      <point x="322" y="232"/>
      <point x="322" y="302" type="curve" smooth="yes"/>
      <point x="322" y="368"/>
      <point x="366" y="424"/>
      <point x="466" y="440" type="curve"/>
      <point x="550" y="456"/>
      <point x="588" y="532"/>
      <point x="602" y="626" type="curve"/>
      <point x="180" y="594"/>
      <point x="54" y="442"/>
      <point x="54" y="276" type="curve" smooth="yes"/>
      <point x="54" y="88"/>
      <point x="200" y="-26"/>
    </contour>
  </outline>
</glyph>
<glyph name="eth" format="2">
  <advance width="1114"/>
  <unicode hex="00F0"/>
  <outline>
    <contour>
      <point x="564" y="-26" type="curve" smooth="yes"/>
      <point x="862" y="-26"/>
      <point x="1100" y="210"/>
      <point x="1100" y="518" type="curve" smooth="yes" name="hr00"/>
      <point x="1100" y="836"/>
      <point x="944" y="1098"/>
      <point x="720" y="1288" type="curve"/>
      <point x="880" y="1364" type="line"/>
      <point x="822" y="1482" type="line"/>
      <point x="602" y="1376" type="line"/>
      <point x="516" y="1436"/>
      <point x="422" y="1484"/>
      <point x="326" y="1524" type="curve"/>
      <point x="240" y="1372" type="line"/>
      <point x="296" y="1346"/>
      <point x="352" y="1316"/>
      <point x="408" y="1284" type="curve"/>
      <point x="250" y="1208" type="line"/>
      <point x="304" y="1092" type="line"/>
      <point x="534" y="1200" type="line"/>
      <point x="602" y="1150"/>
      <point x="662" y="1092"/>
      <point x="712" y="1030" type="curve"/>
      <point x="666" y="1050"/>
      <point x="610" y="1060"/>
      <point x="564" y="1060" type="curve" smooth="yes"/>
      <point x="264" y="1060"/>
      <point x="28" y="824"/>
      <point x="28" y="518" type="curve" smooth="yes"/>
      <point x="28" y="184"/>
      <point x="264" y="-26"/>
    </contour>
    <contour>
      <point x="564" y="178" type="curve" smooth="yes"/>
      <point x="408" y="178"/>
      <point x="324" y="330"/>
      <point x="324" y="518" type="curve" smooth="yes"/>
      <point x="324" y="704"/>
      <point x="408" y="856"/>
      <point x="564" y="856" type="curve" smooth="yes"/>
      <point x="720" y="856"/>
      <point x="802" y="704"/>
      <point x="802" y="518" type="curve" smooth="yes"/>
      <point x="802" y="330"/>
      <point x="720" y="178"/>
    </contour>
  </outline>
</glyph>
<glyph name="divide" format="2">
  <advance width="1136"/>
  <unicode hex="00F7"/>
  <outline>
    <contour>
      <point x="94" y="514" type="line"/>
      <point x="1030" y="514" type="line"/>
      <point x="1030" y="706" type="line"/>
      <point x="94" y="706" type="line"/>
    </contour>
    <contour>
      <point x="560" y="102" type="curve" smooth="yes"/>
      <point x="634" y="102"/>
      <point x="686" y="152"/>
      <point x="686" y="224" type="curve" smooth="yes"/>
      <point x="686" y="298"/>
      <point x="634" y="350"/>
      <point x="560" y="350" type="curve" smooth="yes"/>
      <point x="488" y="350"/>
      <point x="438" y="298"/>
      <point x="438" y="224" type="curve" smooth="yes" name="hr00"/>
      <point x="438" y="152"/>
      <point x="488" y="102"/>
    </contour>
    <contour>
      <point x="560" y="868" type="curve" smooth="yes"/>
      <point x="632" y="868"/>
      <point x="684" y="918"/>
      <point x="684" y="988" type="curve" smooth="yes"/>
      <point x="684" y="1060"/>
      <point x="632" y="1112"/>
      <point x="560" y="1112" type="curve" smooth="yes"/>
      <point x="490" y="1112"/>
      <point x="440" y="1060"/>
      <point x="440" y="988" type="curve" smooth="yes"/>
      <point x="440" y="918"/>
      <point x="490" y="868"/>
    </contour>
  </outline>
</glyph>
<glyph name="thorn" format="2">
  <advance width="1196"/>
  <unicode hex="00FE"/>
  <anchor x="278" y="-482" name="bottom"/>
  <anchor x="278" y="1516" name="top"/>
  <outline>
    <contour>
      <point x="146" y="-482" type="line"/>
      <point x="410" y="-482" type="line"/>
      <point x="410" y="-16" type="line"/>
      <point x="462" y="-26"/>
      <point x="516" y="-30"/>
      <point x="572" y="-30" type="curve" smooth="yes"/>
      <point x="910" y="-30"/>
      <point x="1122" y="228"/>
      <point x="1122" y="554" type="curve" smooth="yes"/>
      <point x="1122" y="794"/>
      <point x="964" y="1052"/>
      <point x="710" y="1052" type="curve" smooth="yes"/>
      <point x="642" y="1052"/>
      <point x="558" y="1036"/>
      <point x="482" y="1004" type="curve"/>
      <point x="522" y="922"/>
      <point x="558" y="846"/>
      <point x="646" y="850" type="curve" smooth="yes"/>
      <point x="780" y="856"/>
      <point x="824" y="682"/>
      <point x="824" y="554" type="curve" smooth="yes"/>
      <point x="824" y="334"/>
      <point x="728" y="176"/>
      <point x="572" y="176" type="curve" smooth="yes"/>
      <point x="518" y="176"/>
      <point x="472" y="180"/>
      <point x="410" y="196" type="curve"/>
      <point x="410" y="1516" type="line"/>
      <point x="146" y="1516" type="line" name="hr00"/>
    </contour>
  </outline>
</glyph>
<glyph name="idotless" format="2">
  <advance width="560"/>
  <unicode hex="0131"/>
  <anchor x="280" y="0" name="bottom"/>
  <anchor x="420" y="0" name="ogonek"/>
  <anchor x="280" y="1034" name="top"/>
  <outline>
    <contour>
      <point x="140" y="0" type="line"/>
      <point x="420" y="0" type="line"/>
      <point x="420" y="1034" type="line"/>
      <point x="140" y="1034" type="line"/>
    </contour>
  </outline>
</glyph>
<glyph name="OE" format="2">
  <advance width="2012"/>
  <unicode hex="0152"/>
  <anchor x="1146" y="0" name="bottom"/>
  <anchor x="1146" y="1454" name="top"/>
  <outline>
    <contour>
      <point x="810" y="-28" type="curve" smooth="yes" name="hr02"/>
      <point x="906" y="-28"/>
      <point x="996" y="0"/>
      <point x="1128" y="0" type="curve" smooth="yes"/>
      <point x="1906" y="0" type="line"/>
      <point x="1906" y="206" type="line"/>
      <point x="1288" y="206" type="line"/>
      <point x="1288" y="1248" type="line"/>
      <point x="1874" y="1248" type="line"/>
      <point x="1874" y="1454" type="line"/>
      <point x="1128" y="1454" type="line" smooth="yes" name="hr01"/>
      <point x="1006" y="1454"/>
      <point x="918" y="1484"/>
      <point x="810" y="1484" type="curve" smooth="yes"/>
      <point x="368" y="1484"/>
      <point x="86" y="1164"/>
      <point x="86" y="728" type="curve" smooth="yes"/>
      <point x="86" y="286"/>
      <point x="358" y="-28"/>
    </contour>
    <contour>
      <point x="810" y="178" type="curve" smooth="yes"/>
      <point x="534" y="178"/>
      <point x="390" y="452"/>
      <point x="390" y="728" type="curve" smooth="yes"/>
      <point x="390" y="1024"/>
      <point x="534" y="1278"/>
      <point x="810" y="1278" type="curve" smooth="yes"/>
      <point x="880" y="1278"/>
      <point x="944" y="1266"/>
      <point x="1002" y="1244" type="curve"/>
      <point x="1002" y="210" type="line"/>
      <point x="944" y="188"/>
      <point x="880" y="178"/>
    </contour>
    <contour>
      <point x="1364" y="662" type="curve"/>
      <point x="1806" y="662" type="line"/>
      <point x="1806" y="864" type="line"/>
      <point x="1564" y="864" type="line" smooth="yes"/>
      <point x="1448" y="864"/>
      <point x="1390" y="750"/>
    </contour>
  </outline>
</glyph>
<glyph name="oe" format="2">
  <advance width="1892"/>
  <unicode hex="0153"/>
  <anchor x="982" y="0" name="bottom"/>
  <anchor x="982" y="1034" name="top"/>
  <outline>
    <contour>
      <point x="604" y="-26" type="curve" smooth="yes"/>
      <point x="746" y="-26"/>
      <point x="884" y="62"/>
      <point x="964" y="172" type="curve"/>
      <point x="986" y="216" type="line"/>
      <point x="1004" y="170" type="line"/>
      <point x="1074" y="58"/>
      <point x="1218" y="-26"/>
      <point x="1382" y="-26" type="curve" smooth="yes"/>
      <point x="1506" y="-26"/>
      <point x="1630" y="0"/>
      <point x="1774" y="68" type="curve"/>
      <point x="1704" y="254" type="line"/>
      <point x="1588" y="202"/>
      <point x="1504" y="180"/>
      <point x="1412" y="180" type="curve" smooth="yes"/>
      <point x="1244" y="180"/>
      <point x="1130" y="314"/>
      <point x="1130" y="544" type="curve" smooth="yes"/>
      <point x="1130" y="772"/>
      <point x="1254" y="866"/>
      <point x="1364" y="866" type="curve" smooth="yes"/>
      <point x="1486" y="866"/>
      <point x="1556" y="756"/>
      <point x="1540" y="634" type="curve" name="hr00"/>
      <point x="1362" y="634" type="line"/>
      <point x="1294" y="634"/>
      <point x="1234" y="562"/>
      <point x="1206" y="470" type="curve"/>
      <point x="1766" y="470" type="line"/>
      <point x="1884" y="814"/>
      <point x="1674" y="1060"/>
      <point x="1378" y="1060" type="curve" smooth="yes"/>
      <point x="1236" y="1060"/>
      <point x="1090" y="996"/>
      <point x="1004" y="876" type="curve"/>
      <point x="980" y="828" type="line"/>
      <point x="960" y="874" type="line"/>
      <point x="878" y="996"/>
      <point x="738" y="1060"/>
      <point x="604" y="1060" type="curve" smooth="yes"/>
      <point x="304" y="1060"/>
      <point x="68" y="824"/>
      <point x="68" y="518" type="curve" smooth="yes"/>
      <point x="68" y="184"/>
      <point x="304" y="-26"/>
    </contour>
    <contour>
      <point x="604" y="178" type="curve" smooth="yes"/>
      <point x="448" y="178"/>
      <point x="364" y="330"/>
      <point x="364" y="518" type="curve" smooth="yes"/>
      <point x="364" y="704"/>
      <point x="448" y="856"/>
      <point x="604" y="856" type="curve" smooth="yes"/>
      <point x="760" y="856"/>
      <point x="842" y="704"/>
      <point x="842" y="518" type="curve" smooth="yes"/>
      <point x="842" y="330"/>
      <point x="760" y="178"/>
    </contour>
  </outline>
</glyph>
<glyph name="florin" format="2">
  <advance width="1048"/>
  <unicode hex="0192"/>
  <outline>
    <contour>
      <point x="32" y="-282" type="line"/>
      <point x="262" y="-226"/>
      <point x="456" y="-114"/>
      <point x="482" y="150" type="curve"/>
      <point x="564" y="988" type="line" smooth="yes"/>
      <point x="578" y="1126"/>
      <point x="662" y="1218"/>
      <point x="792" y="1218" type="curve" smooth="yes"/>
      <point x="838" y="1218"/>
      <point x="886" y="1208"/>
      <point x="962" y="1186" type="curve"/>
      <point x="1042" y="1364" type="line"/>
      <point x="942" y="1410"/>
      <point x="848" y="1424"/>
      <point x="782" y="1424" type="curve" smooth="yes"/>
      <point x="514" y="1424"/>
      <point x="326" y="1250"/>
      <point x="300" y="988" type="curve" smooth="yes"/>
      <point x="294" y="932" type="line"/>
      <point x="124" y="892" type="line"/>
      <point x="122" y="734" type="line"/>
      <point x="276" y="734" type="line" name="hr00"/>
      <point x="220" y="166" type="line"/>
      <point x="202" y="4"/>
      <point x="112" y="-62"/>
      <point x="-14" y="-104" type="curve"/>
    </contour>
    <contour>
      <point x="608" y="734" type="curve"/>
      <point x="914" y="734" type="line"/>
      <point x="914" y="932" type="line"/>
      <point x="826" y="932" type="line"/>
      <point x="710" y="932"/>
      <point x="642" y="822"/>
    </contour>
  </outline>
</glyph>
<glyph name="gravecomb" format="2">
  <unicode hex="0300"/>
  <anchor x="404" y="1034" name="_top"/>
  <anchor x="404" y="1480" name="top"/>
  <outline>
    <contour>
      <point x="530" y="1204" type="curve"/>
      <point x="358" y="1480" type="line"/>
      <point x="80" y="1480" type="line"/>
      <point x="238" y="1290" type="line" name="hr00"/>
      <point x="316" y="1194"/>
      <point x="462" y="1186"/>
    </contour>
  </outline>
</glyph>
<glyph name="acutecomb" format="2">
  <unicode hex="0301"/>
  <anchor x="206" y="1034" name="_top"/>
  <anchor x="206" y="1480" name="top"/>
  <outline>
    <contour>
      <point x="80" y="1204" type="line"/>
      <point x="148" y="1186"/>
      <point x="294" y="1194"/>
      <point x="372" y="1290" type="curve" name="hr00"/>
      <point x="530" y="1480" type="line"/>
      <point x="252" y="1480" type="line"/>
    </contour>
  </outline>
</glyph>
<glyph name="circumflexcomb" format="2">
  <unicode hex="0302"/>
  <anchor x="396" y="1034" name="_top"/>
  <anchor x="396" y="1486" name="top"/>
  <outline>
    <contour>
      <point x="240" y="1170" type="line"/>
      <point x="392" y="1316" type="line"/>
      <point x="548" y="1170" type="line"/>
      <point x="710" y="1206" type="line"/>
      <point x="496" y="1486" type="line" name="hr00"/>
      <point x="290" y="1486" type="line"/>
      <point x="80" y="1206" type="line"/>
    </contour>
  </outline>
</glyph>
<glyph name="tildecomb" format="2">
  <unicode hex="0303"/>
  <anchor x="404" y="1034" name="_top"/>
  <anchor x="404" y="1484" name="top"/>
  <outline>
    <contour>
      <point x="230" y="1236" type="line"/>
      <point x="236" y="1304"/>
      <point x="272" y="1326"/>
      <point x="300" y="1326" type="curve" smooth="yes" name="hr02"/>
      <point x="326" y="1326"/>
      <point x="346" y="1310"/>
      <point x="374" y="1288" type="curve" smooth="yes"/>
      <point x="410" y="1258"/>
      <point x="454" y="1220"/>
      <point x="534" y="1220" type="curve" smooth="yes"/>
      <point x="610" y="1220"/>
      <point x="714" y="1288"/>
      <point x="722" y="1456" type="curve"/>
      <point x="576" y="1468" type="line"/>
      <point x="570" y="1414"/>
      <point x="548" y="1378"/>
      <point x="514" y="1378" type="curve" smooth="yes" name="hr01"/>
      <point x="488" y="1378"/>
      <point x="464" y="1396"/>
      <point x="434" y="1418" type="curve" smooth="yes"/>
      <point x="394" y="1448"/>
      <point x="346" y="1484"/>
      <point x="278" y="1484" type="curve" smooth="yes"/>
      <point x="182" y="1482"/>
      <point x="84" y="1398"/>
      <point x="80" y="1248" type="curve"/>
    </contour>
  </outline>
</glyph>
<glyph name="dotaccentcomb" format="2">
  <unicode hex="0307"/>
  <anchor x="244" y="1034" name="_top"/>
  <anchor x="244" y="1502" name="top"/>
  <outline>
    <contour>
      <point x="244" y="1170" type="curve" smooth="yes"/>
      <point x="336" y="1170"/>
      <point x="408" y="1242"/>
      <point x="408" y="1334" type="curve" smooth="yes"/>
      <point x="408" y="1428"/>
      <point x="336" y="1502"/>
      <point x="244" y="1502" type="curve" smooth="yes"/>
      <point x="152" y="1502"/>
      <point x="80" y="1428"/>
      <point x="80" y="1334" type="curve" smooth="yes" name="hr01"/>
      <point x="80" y="1242"/>
      <point x="152" y="1170"/>
    </contour>
  </outline>
</glyph>
<glyph name="dieresiscomb" format="2">
  <unicode hex="0308"/>
  <anchor x="402" y="1034" name="_top"/>
  <anchor x="402" y="1466" name="top"/>
  <outline>
    <contour>
      <point x="206" y="1214" type="curve" smooth="yes"/>
      <point x="276" y="1214"/>
      <point x="334" y="1270"/>
      <point x="334" y="1340" type="curve" smooth="yes"/>
      <point x="334" y="1410"/>
      <point x="276" y="1466"/>
      <point x="206" y="1466" type="curve" smooth="yes"/>
      <point x="138" y="1466"/>
      <point x="80" y="1410"/>
      <point x="80" y="1340" type="curve" smooth="yes" name="hr00"/>
      <point x="80" y="1270"/>
      <point x="138" y="1214"/>
    </contour>
    <contour>
      <point x="596" y="1214" type="curve" smooth="yes"/>
      <point x="666" y="1214"/>
      <point x="724" y="1270"/>
      <point x="724" y="1340" type="curve" smooth="yes"/>
      <point x="724" y="1410"/>
      <point x="666" y="1466"/>
      <point x="596" y="1466" type="curve" smooth="yes"/>
      <point x="528" y="1466"/>
      <point x="470" y="1410"/>
      <point x="470" y="1340" type="curve" smooth="yes"/>
      <point x="470" y="1270"/>
      <point x="528" y="1214"/>
    </contour>
  </outline>
</glyph>
<glyph name="ringcomb" format="2">
  <unicode hex="030A"/>
  <anchor x="300" y="1034" name="_top"/>
  <anchor x="300" y="1502" name="top"/>
  <outline>
    <contour>
      <point x="300" y="1120" type="curve" smooth="yes"/>
      <point x="420" y="1120"/>
      <point x="518" y="1198"/>
      <point x="518" y="1308" type="curve" smooth="yes"/>
      <point x="518" y="1424"/>
      <point x="430" y="1502"/>
      <point x="302" y="1502" type="curve" smooth="yes"/>
      <point x="176" y="1502"/>
      <point x="80" y="1418"/>
      <point x="80" y="1306" type="curve" smooth="yes"/>
      <point x="80" y="1200"/>
      <point x="174" y="1120"/>
    </contour>
    <contour>
      <point x="300" y="1232" type="curve" smooth="yes"/>
      <point x="256" y="1232"/>
      <point x="230" y="1270"/>
      <point x="230" y="1308" type="curve" smooth="yes"/>
      <point x="230" y="1356"/>
      <point x="256" y="1390"/>
      <point x="300" y="1390" type="curve" smooth="yes"/>
      <point x="348" y="1390"/>
      <point x="374" y="1356"/>
      <point x="374" y="1310" type="curve" smooth="yes"/>
      <point x="374" y="1266"/>
      <point x="348" y="1232"/>
    </contour>
  </outline>
</glyph>
<glyph name="cedillacomb" format="2">
  <unicode hex="0327"/>
  <anchor x="288" y="0" name="_bottom"/>
  <anchor x="288" y="-426" name="bottom"/>
  <outline>
    <contour>
      <point x="242" y="-426" type="curve" smooth="yes"/>
      <point x="364" y="-426"/>
      <point x="496" y="-366"/>
      <point x="496" y="-246" type="curve" smooth="yes"/>
      <point x="496" y="-158"/>
      <point x="414" y="-104"/>
      <point x="334" y="-86" type="curve"/>
      <point x="356" y="6" type="line" name="hr00"/>
      <point x="220" y="-6" type="line"/>
      <point x="174" y="-182" type="line"/>
      <point x="268" y="-192"/>
      <point x="322" y="-212"/>
      <point x="322" y="-252" type="curve" smooth="yes"/>
      <point x="322" y="-282"/>
      <point x="288" y="-300"/>
      <point x="242" y="-300" type="curve" smooth="yes"/>
      <point x="202" y="-300"/>
      <point x="166" y="-294"/>
      <point x="116" y="-276" type="curve"/>
      <point x="80" y="-386" type="line"/>
      <point x="144" y="-414"/>
      <point x="196" y="-426"/>
    </contour>
  </outline>
</glyph>
<glyph name="strokeshortcomb" format="2">
  <unicode hex="0335"/>
  <anchor x="504" y="712" name="_center"/>
  <outline>
    <contour>
      <point x="926" y="802" type="line"/>
      <point x="80" y="802" type="line"/>
      <point x="80" y="620" type="line"/>
      <point x="926" y="620" type="line"/>
    </contour>
  </outline>
</glyph>
<glyph name="slashlongcomb" format="2">
  <unicode hex="0338"/>
  <anchor x="554" y="508" name="_center"/>
  <outline>
    <contour>
      <point x="500" y="256" type="curve"/>
      <point x="1028" y="1146" type="line"/>
      <point x="840" y="1146" type="line"/>
      <point x="446" y="490" type="line"/>
      <point x="400" y="396"/>
      <point x="454" y="308"/>
    </contour>
    <contour>
      <point x="80" y="-132" type="line"/>
      <point x="274" y="-132" type="line" name="hr01"/>
      <point x="370" y="34" type="line"/>
      <point x="224" y="114" type="line"/>
    </contour>
  </outline>
</glyph>
<glyph name="emdash" format="2">
  <advance width="1698"/>
  <unicode hex="2014"/>
  <outline>
    <contour>
      <point x="90" y="452" type="line" name="hr00"/>
      <point x="1568" y="452" type="line"/>
      <point x="1568" y="648" type="line"/>
      <point x="90" y="648" type="line"/>
    </contour>
  </outline>
</glyph>
<glyph name="dagger" format="2">
  <advance width="1134"/>
  <unicode hex="2020"/>
  <outline>
    <contour>
      <point x="428" y="-60" type="line"/>
      <point x="668" y="-60" type="line" name="hr00"/>
      <point x="668" y="1394" type="line"/>
      <point x="428" y="1394" type="line"/>
    </contour>
    <contour>
      <point x="-2" y="782" type="line"/>
      <point x="132" y="782" type="line"/>
      <point x="262" y="782"/>
      <point x="324" y="884"/>
      <point x="358" y="984" type="curve"/>
      <point x="-2" y="984" type="line"/>
    </contour>
    <contour>
      <point x="964" y="782" type="curve"/>
      <point x="1098" y="782" type="line"/>
      <point x="1098" y="984" type="line"/>
      <point x="738" y="984" type="line"/>
      <point x="772" y="884"/>
      <point x="834" y="782"/>
    </contour>
  </outline>
</glyph>
<glyph name="daggerdbl" format="2">
  <advance width="1222"/>
  <unicode hex="2021"/>
  <outline>
    <contour>
      <point x="476" y="-60" type="line"/>
      <point x="716" y="-60" type="line" name="hr00"/>
      <point x="716" y="1394" type="line"/>
      <point x="476" y="1394" type="line"/>
    </contour>
    <contour>
      <point x="46" y="310" type="line"/>
      <point x="180" y="310" type="line"/>
      <point x="310" y="310"/>
      <point x="372" y="412"/>
      <point x="406" y="512" type="curve"/>
      <point x="46" y="512" type="line"/>
    </contour>
    <contour>
      <point x="46" y="822" type="line"/>
      <point x="180" y="822" type="line"/>
      <point x="310" y="822"/>
      <point x="372" y="924"/>
      <point x="406" y="1024" type="curve"/>
      <point x="46" y="1024" type="line"/>
    </contour>
    <contour>
      <point x="1012" y="310" type="curve"/>
      <point x="1146" y="310" type="line"/>
      <point x="1146" y="512" type="line"/>
      <point x="786" y="512" type="line"/>
      <point x="820" y="412"/>
      <point x="882" y="310"/>
    </contour>
    <contour>
      <point x="1012" y="822" type="curve"/>
      <point x="1146" y="822" type="line"/>
      <point x="1146" y="1024" type="line"/>
      <point x="786" y="1024" type="line"/>
      <point x="820" y="924"/>
      <point x="882" y="822"/>
    </contour>
  </outline>
</glyph>
<glyph name="bullet" format="2">
  <advance width="1000"/>
  <unicode hex="2022"/>
  <outline>
    <contour>
      <point x="514" y="444" type="curve" smooth="yes"/>
      <point x="622" y="444"/>
      <point x="704" y="522"/>
      <point x="704" y="630" type="curve" smooth="yes"/>
      <point x="704" y="738"/>
      <point x="622" y="820"/>
      <point x="514" y="820" type="curve" smooth="yes"/>
      <point x="406" y="820"/>
      <point x="328" y="738"/>
      <point x="328" y="630" type="curve" smooth="yes" name="hr00"/>
      <point x="328" y="522"/>
      <point x="406" y="444"/>
    </contour>
  </outline>
</glyph>
<glyph name="perthousand" format="2">
  <advance width="2228"/>
  <unicode hex="2030"/>
  <outline>
    <contour>
      <point x="72" y="0" type="line"/>
      <point x="312" y="0" type="line"/>
      <point x="1434" y="1404" type="line"/>
      <point x="1194" y="1404" type="line"/>
    </contour>
    <contour>
      <point x="352" y="702" type="curve" smooth="yes" name="hr02"/>
      <point x="542" y="702"/>
      <point x="664" y="836"/>
      <point x="664" y="1068" type="curve" smooth="yes"/>
      <point x="664" y="1300"/>
      <point x="542" y="1434"/>
      <point x="352" y="1434" type="curve" smooth="yes"/>
      <point x="160" y="1434"/>
      <point x="42" y="1300"/>
      <point x="42" y="1068" type="curve" smooth="yes"/>
      <point x="42" y="836"/>
      <point x="160" y="702"/>
    </contour>
    <contour>
      <point x="352" y="844" type="curve" smooth="yes"/>
      <point x="286" y="844"/>
      <point x="240" y="920"/>
      <point x="240" y="1068" type="curve" smooth="yes"/>
      <point x="240" y="1214"/>
      <point x="286" y="1292"/>
      <point x="352" y="1292" type="curve" smooth="yes"/>
      <point x="420" y="1292"/>
      <point x="464" y="1214"/>
      <point x="464" y="1068" type="curve" smooth="yes"/>
      <point x="464" y="920"/>
      <point x="420" y="844"/>
    </contour>
    <contour>
      <point x="1138" y="-26" type="curve" smooth="yes" name="hr01"/>
      <point x="1328" y="-26"/>
      <point x="1450" y="108"/>
      <point x="1450" y="340" type="curve" smooth="yes"/>
      <point x="1450" y="572"/>
      <point x="1328" y="706"/>
      <point x="1138" y="706" type="curve" smooth="yes"/>
      <point x="946" y="706"/>
      <point x="828" y="572"/>
      <point x="828" y="340" type="curve" smooth="yes"/>
      <point x="828" y="108"/>
      <point x="946" y="-26"/>
    </contour>
    <contour>
      <point x="1138" y="116" type="curve" smooth="yes"/>
      <point x="1072" y="116"/>
      <point x="1026" y="192"/>
      <point x="1026" y="340" type="curve" smooth="yes"/>
      <point x="1026" y="486"/>
      <point x="1072" y="564"/>
      <point x="1138" y="564" type="curve" smooth="yes"/>
      <point x="1206" y="564"/>
      <point x="1250" y="486"/>
      <point x="1250" y="340" type="curve" smooth="yes"/>
      <point x="1250" y="192"/>
      <point x="1206" y="116"/>
    </contour>
    <contour>
      <point x="1866" y="-26" type="curve" smooth="yes"/>
      <point x="2056" y="-26"/>
      <point x="2178" y="108"/>
      <point x="2178" y="340" type="curve" smooth="yes"/>
      <point x="2178" y="572"/>
      <point x="2056" y="706"/>
      <point x="1866" y="706" type="curve" smooth="yes"/>
      <point x="1674" y="706"/>
      <point x="1556" y="572"/>
      <point x="1556" y="340" type="curve" smooth="yes"/>
      <point x="1556" y="108"/>
      <point x="1674" y="-26"/>
    </contour>
    <contour>
      <point x="1866" y="116" type="curve" smooth="yes"/>
      <point x="1800" y="116"/>
      <point x="1754" y="192"/>
      <point x="1754" y="340" type="curve" smooth="yes"/>
      <point x="1754" y="486"/>
      <point x="1800" y="564"/>
      <point x="1866" y="564" type="curve" smooth="yes"/>
      <point x="1934" y="564"/>
      <point x="1978" y="486"/>
      <point x="1978" y="340" type="curve" smooth="yes"/>
      <point x="1978" y="192"/>
      <point x="1934" y="116"/>
    </contour>
  </outline>
</glyph>
<glyph name="guilsinglleft" format="2">
  <advance width="1226"/>
  <unicode hex="2039"/>
  <outline>
    <contour>
      <point x="814" y="90" type="line"/>
      <point x="924" y="196" type="line"/>
      <point x="672" y="516" type="line"/>
      <point x="924" y="836" type="line"/>
      <point x="814" y="944" type="line"/>
      <point x="348" y="516" type="line" name="hr00"/>
    </contour>
  </outline>
</glyph>
<glyph name="guilsinglright" format="2">
  <advance width="1226"/>
  <unicode hex="203A"/>
  <outline>
    <contour>
      <point x="488" y="90" type="line" name="hr00"/>
      <point x="954" y="516" type="line"/>
      <point x="488" y="944" type="line"/>
      <point x="378" y="836" type="line"/>
      <point x="630" y="516" type="line"/>
      <point x="378" y="196" type="line"/>
    </contour>
  </outline>
</glyph>
<glyph name="euro" format="2">
  <advance width="1180"/>
  <unicode hex="20AC"/>
  <outline>
    <contour>
      <point x="734" y="-24" type="curve" smooth="yes"/>
      <point x="842" y="-24"/>
      <point x="958" y="4"/>
      <point x="1072" y="64" type="curve"/>
      <point x="1000" y="240" type="line"/>
      <point x="906" y="196"/>
      <point x="822" y="174"/>
      <point x="734" y="174" type="curve" smooth="yes"/>
      <point x="558" y="174"/>
      <point x="448" y="296"/>
      <point x="396" y="458" type="curve"/>
      <point x="380" y="490" type="line"/>
      <point x="422" y="488" type="line"/>
      <point x="914" y="488" type="line"/>
      <point x="914" y="638" type="line"/>
      <point x="362" y="638" type="line"/>
      <point x="360" y="658"/>
      <point x="360" y="678"/>
      <point x="360" y="700" type="curve" smooth="yes"/>
      <point x="360" y="966"/>
      <point x="478" y="1226"/>
      <point x="734" y="1226" type="curve" smooth="yes"/>
      <point x="822" y="1226"/>
      <point x="890" y="1214"/>
      <point x="1002" y="1182" type="curve"/>
      <point x="1072" y="1358" type="line"/>
      <point x="950" y="1404"/>
      <point x="842" y="1424"/>
      <point x="734" y="1424" type="curve" smooth="yes"/>
      <point x="374" y="1424"/>
      <point x="172" y="1210"/>
      <point x="98" y="942" type="curve"/>
      <point x="-66" y="942" type="line"/>
      <point x="-66" y="792" type="line" name="hr02"/>
      <point x="72" y="792" type="line"/>
      <point x="68" y="762"/>
      <point x="68" y="730"/>
      <point x="68" y="700" type="curve" smooth="yes" name="hr01"/>
      <point x="68" y="678"/>
      <point x="68" y="658"/>
      <point x="70" y="638" type="curve"/>
      <point x="-66" y="638" type="line"/>
      <point x="-66" y="488" type="line"/>
      <point x="92" y="488" type="line"/>
      <point x="156" y="212"/>
      <point x="352" y="-24"/>
    </contour>
    <contour>
      <point x="434" y="792" type="curve"/>
      <point x="914" y="792" type="line"/>
      <point x="914" y="942" type="line"/>
      <point x="608" y="942" type="line"/>
      <point x="510" y="942"/>
      <point x="460" y="868"/>
    </contour>
  </outline>
</glyph>
<glyph name="trademark" format="2">
  <advance width="1456"/>
  <unicode hex="2122"/>
  <outline>
    <contour>
      <point x="592" y="858" type="line"/>
      <point x="738" y="858" type="line"/>
      <point x="768" y="1250" type="line"/>
      <point x="772" y="1284" type="line"/>
      <point x="780" y="1250" type="line"/>
      <point x="912" y="868" type="line"/>
      <point x="1044" y="868" type="line"/>
      <point x="1172" y="1250" type="line"/>
      <point x="1182" y="1284" type="line"/>
      <point x="1186" y="1250" type="line"/>
      <point x="1216" y="858" type="line"/>
      <point x="1364" y="858" type="line"/>
      <point x="1302" y="1456" type="line"/>
      <point x="1114" y="1456" type="line"/>
      <point x="984" y="1058" type="line"/>
      <point x="978" y="1032" type="line"/>
      <point x="972" y="1058" type="line"/>
      <point x="842" y="1456" type="line"/>
      <point x="654" y="1456" type="line"/>
    </contour>
    <contour>
      <point x="212" y="858" type="line"/>
      <point x="368" y="858" type="line"/>
      <point x="368" y="1340" type="line"/>
      <point x="524" y="1340" type="line"/>
      <point x="524" y="1456" type="line"/>
      <point x="56" y="1456" type="line"/>
      <point x="56" y="1340" type="line" name="hr00"/>
      <point x="212" y="1340" type="line"/>
    </contour>
  </outline>
</glyph>
<glyph name=".notdef" format="2">
  <advance width="1502"/>
  <outline>
    <contour>
      <point x="166" y="1454" type="line"/>
      <point x="166" y="0" type="line"/>
      <point x="1338" y="0" type="line"/>
      <point x="1338" y="1454" type="line"/>
    </contour>
    <contour>
      <point x="286" y="1334" type="line"/>
      <point x="1216" y="1334" type="line"/>
      <point x="1216" y="120" type="line"/>
      <point x="286" y="120" type="line"/>
    </contour>
    <component base="question" xScale="0.56447" yScale="0.56447" xOffset="446" yOffset="324"/>
  </outline>
</glyph>
<glyph name="a.001" format="2">
  <advance width="1196"/>
  <anchor x="558" y="0" name="bottom"/>
  <anchor x="1002" y="0" name="ogonek"/>
  <anchor x="562" y="1034" name="top"/>
  <outline>
    <contour>
      <point x="482" y="-18" type="curve" smooth="yes"/>
      <point x="550" y="-14"/>
      <point x="632" y="20"/>
      <point x="706" y="64" type="curve"/>
      <point x="654" y="138"/>
      <point x="614" y="200"/>
      <point x="536" y="194" type="curve" smooth="yes" name="hr01"/>
      <point x="402" y="184"/>
      <point x="370" y="352"/>
      <point x="370" y="480" type="curve" smooth="yes"/>
      <point x="370" y="700"/>
      <point x="468" y="852"/>
      <point x="650" y="852" type="curve" smooth="yes"/>
      <point x="678" y="852"/>
      <point x="726" y="848"/>
      <point x="780" y="836" type="curve"/>
      <point x="780" y="210" type="line" smooth="yes"/>
      <point x="780" y="112"/>
      <point x="834" y="18"/>
      <point x="868" y="0" type="curve"/>
      <point x="1082" y="0" type="line"/>
      <point x="1058" y="94"/>
      <point x="1050" y="178"/>
      <point x="1050" y="252" type="curve"/>
      <point x="1050" y="998" type="line"/>
      <point x="850" y="1048"/>
      <point x="750" y="1058"/>
      <point x="638" y="1058" type="curve" smooth="yes"/>
      <point x="280" y="1058"/>
      <point x="72" y="798"/>
      <point x="72" y="480" type="curve" smooth="yes"/>
      <point x="72" y="242"/>
      <point x="230" y="-32"/>
    </contour>
  </outline>
</glyph>
<glyph name="acutecomb.case" format="2">
  <anchor x="208" y="1454" name="_top"/>
  <anchor x="208" y="1780" name="top"/>
  <outline>
    <contour>
      <point x="80" y="1530" type="line"/>
      <point x="148" y="1512"/>
      <point x="294" y="1526"/>
      <point x="374" y="1616" type="curve" name="hr00"/>
      <point x="518" y="1780" type="line"/>
      <point x="252" y="1780" type="line"/>
    </contour>
  </outline>
</glyph>
<glyph name="gravecomb.case" format="2">
  <anchor x="350" y="1454" name="_top"/>
  <anchor x="350" y="1780" name="top"/>
  <outline>
    <contour>
      <point x="494" y="1530" type="curve"/>
      <point x="346" y="1780" type="line"/>
      <point x="80" y="1780" type="line" name="hr00"/>
      <point x="202" y="1616" type="line"/>
      <point x="270" y="1524"/>
      <point x="426" y="1512"/>
    </contour>
  </outline>
</glyph>
<glyph name="slashlongcomb.case" format="2">
  <anchor x="692" y="730" name="_center"/>
  <outline>
    <contour>
      <point x="542" y="288" type="curve"/>
      <point x="1304" y="1578" type="line"/>
      <point x="1066" y="1578" type="line"/>
      <point x="476" y="588" type="line"/>
      <point x="418" y="470"/>
      <point x="482" y="368"/>
    </contour>
    <contour>
      <point x="80" y="-120" type="line"/>
      <point x="318" y="-120" type="line"/>
      <point x="416" y="50" type="line"/>
      <point x="240" y="152" type="line"/>
    </contour>
  </outline>
</glyph>
